<?xml version="1.0" encoding="UTF-8" standalone="no"?>
<!DOCTYPE svg PUBLIC "-//W3C//DTD SVG 1.1//EN"
 "http://www.w3.org/Graphics/SVG/1.1/DTD/svg11.dtd">
<!-- Generated by graphviz version 2.38.0 (20140413.2041)
 -->
<!-- Title: snakemake_dag Pages: 1 -->
<svg width="3287pt" height="497pt"
 viewBox="0.00 0.00 3286.50 497.00" xmlns="http://www.w3.org/2000/svg" xmlns:xlink="http://www.w3.org/1999/xlink">
<g id="graph0" class="graph" transform="scale(1 1) rotate(0) translate(4 493)">
<title>snakemake_dag</title>
<polygon fill="white" stroke="none" points="-4,4 -4,-493 3282.5,-493 3282.5,4 -4,4"/>
<!-- 0 -->
<g id="node1" class="node"><title>0</title>
<path fill="none" stroke="#56d873" stroke-width="2" d="M1824,-36C1824,-36 1794,-36 1794,-36 1788,-36 1782,-30 1782,-24 1782,-24 1782,-12 1782,-12 1782,-6 1788,-0 1794,-0 1794,-0 1824,-0 1824,-0 1830,-0 1836,-6 1836,-12 1836,-12 1836,-24 1836,-24 1836,-30 1830,-36 1824,-36"/>
<text text-anchor="middle" x="1809" y="-15.5" font-family="sans" font-size="10.00">all</text>
</g>
<!-- 1 -->
<g id="node2" class="node"><title>1</title>
<path fill="none" stroke="#70d856" stroke-width="2" stroke-dasharray="5,2" d="M2784.5,-110.5C2784.5,-110.5 2753.5,-110.5 2753.5,-110.5 2747.5,-110.5 2741.5,-104.5 2741.5,-98.5 2741.5,-98.5 2741.5,-86.5 2741.5,-86.5 2741.5,-80.5 2747.5,-74.5 2753.5,-74.5 2753.5,-74.5 2784.5,-74.5 2784.5,-74.5 2790.5,-74.5 2796.5,-80.5 2796.5,-86.5 2796.5,-86.5 2796.5,-98.5 2796.5,-98.5 2796.5,-104.5 2790.5,-110.5 2784.5,-110.5"/>
<text text-anchor="middle" x="2769" y="-90" font-family="sans" font-size="10.00">bam_qc</text>
</g>
<!-- 1&#45;&gt;0 -->
<g id="edge1" class="edge"><title>1&#45;&gt;0</title>
<path fill="none" stroke="grey" stroke-width="2" d="M2741.07,-76.7785C2736.47,-74.8711 2731.68,-73.1755 2727,-72 2555.96,-29.0224 1996.34,-20.751 1846.3,-19.2916"/>
<polygon fill="grey" stroke="grey" stroke-width="2" points="1846.25,-15.7911 1836.22,-19.1979 1846.18,-22.7908 1846.25,-15.7911"/>
</g>
<!-- 2 -->
<g id="node3" class="node"><title>2</title>
<path fill="none" stroke="#56a2d8" stroke-width="2" stroke-dasharray="5,2" d="M1381,-185C1381,-185 1319,-185 1319,-185 1313,-185 1307,-179 1307,-173 1307,-173 1307,-161 1307,-161 1307,-155 1313,-149 1319,-149 1319,-149 1381,-149 1381,-149 1387,-149 1393,-155 1393,-161 1393,-161 1393,-173 1393,-173 1393,-179 1387,-185 1381,-185"/>
<text text-anchor="middle" x="1350" y="-164.5" font-family="sans" font-size="10.00">MAnorm_anno</text>
</g>
<!-- 2&#45;&gt;0 -->
<g id="edge2" class="edge"><title>2&#45;&gt;0</title>
<path fill="none" stroke="grey" stroke-width="2" d="M1350.81,-148.686C1352.82,-127.105 1359.7,-90.7792 1383,-72 1442.43,-24.0899 1679.53,-18.9183 1771.9,-18.7642"/>
<polygon fill="grey" stroke="grey" stroke-width="2" points="1771.92,-22.2641 1781.92,-18.7666 1771.92,-15.2641 1771.92,-22.2641"/>
</g>
<!-- 15 -->
<g id="node16" class="node"><title>15</title>
<path fill="none" stroke="#56d8c1" stroke-width="2" stroke-dasharray="5,2" d="M1503.5,-110.5C1503.5,-110.5 1404.5,-110.5 1404.5,-110.5 1398.5,-110.5 1392.5,-104.5 1392.5,-98.5 1392.5,-98.5 1392.5,-86.5 1392.5,-86.5 1392.5,-80.5 1398.5,-74.5 1404.5,-74.5 1404.5,-74.5 1503.5,-74.5 1503.5,-74.5 1509.5,-74.5 1515.5,-80.5 1515.5,-86.5 1515.5,-86.5 1515.5,-98.5 1515.5,-98.5 1515.5,-104.5 1509.5,-110.5 1503.5,-110.5"/>
<text text-anchor="middle" x="1454" y="-90" font-family="sans" font-size="10.00">merge_MAnorm_table</text>
</g>
<!-- 2&#45;&gt;15 -->
<g id="edge41" class="edge"><title>2&#45;&gt;15</title>
<path fill="none" stroke="grey" stroke-width="2" d="M1374.65,-148.819C1388.51,-139.158 1405.99,-126.97 1421.01,-116.496"/>
<polygon fill="grey" stroke="grey" stroke-width="2" points="1423.33,-119.148 1429.53,-110.558 1419.33,-113.406 1423.33,-119.148"/>
</g>
<!-- 3 -->
<g id="node4" class="node"><title>3</title>
<path fill="none" stroke="#56d8a2" stroke-width="2" d="M2895,-110.5C2895,-110.5 2865,-110.5 2865,-110.5 2859,-110.5 2853,-104.5 2853,-98.5 2853,-98.5 2853,-86.5 2853,-86.5 2853,-80.5 2859,-74.5 2865,-74.5 2865,-74.5 2895,-74.5 2895,-74.5 2901,-74.5 2907,-80.5 2907,-86.5 2907,-86.5 2907,-98.5 2907,-98.5 2907,-104.5 2901,-110.5 2895,-110.5"/>
<text text-anchor="middle" x="2880" y="-90" font-family="sans" font-size="10.00">report</text>
</g>
<!-- 3&#45;&gt;0 -->
<g id="edge3" class="edge"><title>3&#45;&gt;0</title>
<path fill="none" stroke="grey" stroke-width="2" d="M2852.76,-76.7502C2848.27,-74.8465 2843.58,-73.1594 2839,-72 2645.55,-23.0822 2008.22,-19.1691 1846.55,-18.9754"/>
<polygon fill="grey" stroke="grey" stroke-width="2" points="1846.17,-15.4752 1836.17,-18.9675 1846.17,-22.4752 1846.17,-15.4752"/>
</g>
<!-- 4 -->
<g id="node5" class="node"><title>4</title>
<path fill="none" stroke="#56a2d8" stroke-width="2" stroke-dasharray="5,2" d="M1693,-185C1693,-185 1631,-185 1631,-185 1625,-185 1619,-179 1619,-173 1619,-173 1619,-161 1619,-161 1619,-155 1625,-149 1631,-149 1631,-149 1693,-149 1693,-149 1699,-149 1705,-155 1705,-161 1705,-161 1705,-173 1705,-173 1705,-179 1699,-185 1693,-185"/>
<text text-anchor="middle" x="1662" y="-164.5" font-family="sans" font-size="10.00">MAnorm_anno</text>
</g>
<!-- 4&#45;&gt;0 -->
<g id="edge4" class="edge"><title>4&#45;&gt;0</title>
<path fill="none" stroke="grey" stroke-width="2" d="M1679.15,-148.85C1705.26,-122.737 1755.09,-72.9102 1784.85,-43.1487"/>
<polygon fill="grey" stroke="grey" stroke-width="2" points="1787.36,-45.5872 1791.96,-36.0412 1782.41,-40.6374 1787.36,-45.5872"/>
</g>
<!-- 4&#45;&gt;15 -->
<g id="edge43" class="edge"><title>4&#45;&gt;15</title>
<path fill="none" stroke="grey" stroke-width="2" d="M1618.9,-150.978C1588.14,-140.257 1546.41,-125.711 1512.63,-113.935"/>
<polygon fill="grey" stroke="grey" stroke-width="2" points="1513.47,-110.522 1502.87,-110.535 1511.16,-117.132 1513.47,-110.522"/>
</g>
<!-- 5 -->
<g id="node6" class="node"><title>5</title>
<path fill="none" stroke="#a7d856" stroke-width="2" stroke-dasharray="5,2" d="M2459.5,-110.5C2459.5,-110.5 2426.5,-110.5 2426.5,-110.5 2420.5,-110.5 2414.5,-104.5 2414.5,-98.5 2414.5,-98.5 2414.5,-86.5 2414.5,-86.5 2414.5,-80.5 2420.5,-74.5 2426.5,-74.5 2426.5,-74.5 2459.5,-74.5 2459.5,-74.5 2465.5,-74.5 2471.5,-80.5 2471.5,-86.5 2471.5,-86.5 2471.5,-98.5 2471.5,-98.5 2471.5,-104.5 2465.5,-110.5 2459.5,-110.5"/>
<text text-anchor="middle" x="2443" y="-90" font-family="sans" font-size="10.00">bam_idx</text>
</g>
<!-- 5&#45;&gt;0 -->
<g id="edge5" class="edge"><title>5&#45;&gt;0</title>
<path fill="none" stroke="grey" stroke-width="2" d="M2414.25,-85.3583C2393.66,-81.1294 2365.22,-75.6386 2340,-72 2155.59,-45.3926 1933.21,-27.8811 1846.33,-21.5951"/>
<polygon fill="grey" stroke="grey" stroke-width="2" points="1846.4,-18.0914 1836.18,-20.8672 1845.9,-25.0735 1846.4,-18.0914"/>
</g>
<!-- 6 -->
<g id="node7" class="node"><title>6</title>
<path fill="none" stroke="#56d8d8" stroke-width="2" stroke-dasharray="5,2" d="M3018.5,-113C3018.5,-113 2937.5,-113 2937.5,-113 2931.5,-113 2925.5,-107 2925.5,-101 2925.5,-101 2925.5,-84 2925.5,-84 2925.5,-78 2931.5,-72 2937.5,-72 2937.5,-72 3018.5,-72 3018.5,-72 3024.5,-72 3030.5,-78 3030.5,-84 3030.5,-84 3030.5,-101 3030.5,-101 3030.5,-107 3024.5,-113 3018.5,-113"/>
<text text-anchor="middle" x="2978" y="-101" font-family="sans" font-size="10.00">peak_anno</text>
<text text-anchor="middle" x="2978" y="-90" font-family="sans" font-size="10.00">p: 1e&#45;2</text>
<text text-anchor="middle" x="2978" y="-79" font-family="sans" font-size="10.00">treat: A_H3K4me3</text>
</g>
<!-- 6&#45;&gt;0 -->
<g id="edge6" class="edge"><title>6&#45;&gt;0</title>
<path fill="none" stroke="grey" stroke-width="2" d="M2925.46,-73.9673C2922.28,-73.2202 2919.11,-72.5541 2916,-72 2703.66,-34.1762 2014.23,-21.9531 1846.19,-19.4995"/>
<polygon fill="grey" stroke="grey" stroke-width="2" points="1846.16,-15.9988 1836.11,-19.355 1846.06,-22.9981 1846.16,-15.9988"/>
</g>
<!-- 7 -->
<g id="node8" class="node"><title>7</title>
<path fill="none" stroke="#56c1d8" stroke-width="2" stroke-dasharray="5,2" d="M3131.5,-110.5C3131.5,-110.5 3060.5,-110.5 3060.5,-110.5 3054.5,-110.5 3048.5,-104.5 3048.5,-98.5 3048.5,-98.5 3048.5,-86.5 3048.5,-86.5 3048.5,-80.5 3054.5,-74.5 3060.5,-74.5 3060.5,-74.5 3131.5,-74.5 3131.5,-74.5 3137.5,-74.5 3143.5,-80.5 3143.5,-86.5 3143.5,-86.5 3143.5,-98.5 3143.5,-98.5 3143.5,-104.5 3137.5,-110.5 3131.5,-110.5"/>
<text text-anchor="middle" x="3096" y="-95.5" font-family="sans" font-size="10.00">peakset_overlap</text>
<text text-anchor="middle" x="3096" y="-84.5" font-family="sans" font-size="10.00">p: 1e&#45;2</text>
</g>
<!-- 7&#45;&gt;0 -->
<g id="edge7" class="edge"><title>7&#45;&gt;0</title>
<path fill="none" stroke="grey" stroke-width="2" d="M3049.63,-74.4268C3046.07,-73.4866 3042.49,-72.6588 3039,-72 2801.79,-27.2778 2025.62,-20.2143 1846.23,-19.1712"/>
<polygon fill="grey" stroke="grey" stroke-width="2" points="1846.25,-15.6713 1836.23,-19.1157 1846.21,-22.6712 1846.25,-15.6713"/>
</g>
<!-- 8 -->
<g id="node9" class="node"><title>8</title>
<path fill="none" stroke="#56a2d8" stroke-width="2" stroke-dasharray="5,2" d="M2421,-185C2421,-185 2359,-185 2359,-185 2353,-185 2347,-179 2347,-173 2347,-173 2347,-161 2347,-161 2347,-155 2353,-149 2359,-149 2359,-149 2421,-149 2421,-149 2427,-149 2433,-155 2433,-161 2433,-161 2433,-173 2433,-173 2433,-179 2427,-185 2421,-185"/>
<text text-anchor="middle" x="2390" y="-164.5" font-family="sans" font-size="10.00">MAnorm_anno</text>
</g>
<!-- 8&#45;&gt;0 -->
<g id="edge8" class="edge"><title>8&#45;&gt;0</title>
<path fill="none" stroke="grey" stroke-width="2" d="M2346.88,-151.87C2343.88,-150.895 2340.89,-149.931 2338,-149 2230.16,-114.286 2204.91,-99.4852 2095,-72 2006.64,-49.9021 1900.81,-32.6324 1846,-24.3576"/>
<polygon fill="grey" stroke="grey" stroke-width="2" points="1846.46,-20.8881 1836.05,-22.8709 1845.42,-27.8111 1846.46,-20.8881"/>
</g>
<!-- 8&#45;&gt;15 -->
<g id="edge51" class="edge"><title>8&#45;&gt;15</title>
<path fill="none" stroke="grey" stroke-width="2" d="M2346.8,-150.972C2343.85,-150.223 2340.89,-149.554 2338,-149 2182.91,-119.279 1707.66,-101.524 1525.81,-95.6651"/>
<polygon fill="grey" stroke="grey" stroke-width="2" points="1525.66,-92.1587 1515.55,-95.3373 1525.44,-99.1551 1525.66,-92.1587"/>
</g>
<!-- 9 -->
<g id="node10" class="node"><title>9</title>
<path fill="none" stroke="#d85656" stroke-width="2" stroke-dasharray="5,2" d="M2801.5,-489C2801.5,-489 2708.5,-489 2708.5,-489 2702.5,-489 2696.5,-483 2696.5,-477 2696.5,-477 2696.5,-465 2696.5,-465 2696.5,-459 2702.5,-453 2708.5,-453 2708.5,-453 2801.5,-453 2801.5,-453 2807.5,-453 2813.5,-459 2813.5,-465 2813.5,-465 2813.5,-477 2813.5,-477 2813.5,-483 2807.5,-489 2801.5,-489"/>
<text text-anchor="middle" x="2755" y="-474" font-family="sans" font-size="10.00">trimmomatic</text>
<text text-anchor="middle" x="2755" y="-463" font-family="sans" font-size="10.00">sample: A_H3K4me3</text>
</g>
<!-- 9&#45;&gt;0 -->
<g id="edge9" class="edge"><title>9&#45;&gt;0</title>
<path fill="none" stroke="grey" stroke-width="2" d="M2769.85,-452.967C2790.39,-427.578 2825,-377.474 2825,-328 2825,-328 2825,-328 2825,-166 2825,-123.287 2837.47,-99.7496 2805,-72 2767.87,-40.2696 2022.42,-23.2994 1846.13,-19.7206"/>
<polygon fill="grey" stroke="grey" stroke-width="2" points="1846.12,-16.2198 1836.05,-19.518 1845.98,-23.2183 1846.12,-16.2198"/>
</g>
<!-- 12 -->
<g id="node13" class="node"><title>12</title>
<path fill="none" stroke="#d88d56" stroke-width="2" stroke-dasharray="5,2" d="M2700,-417C2700,-417 2670,-417 2670,-417 2664,-417 2658,-411 2658,-405 2658,-405 2658,-393 2658,-393 2658,-387 2664,-381 2670,-381 2670,-381 2700,-381 2700,-381 2706,-381 2712,-387 2712,-393 2712,-393 2712,-405 2712,-405 2712,-411 2706,-417 2700,-417"/>
<text text-anchor="middle" x="2685" y="-396.5" font-family="sans" font-size="10.00">bowtie2</text>
</g>
<!-- 9&#45;&gt;12 -->
<g id="edge37" class="edge"><title>9&#45;&gt;12</title>
<path fill="none" stroke="grey" stroke-width="2" d="M2737.7,-452.697C2729.14,-444.135 2718.66,-433.656 2709.3,-424.304"/>
<polygon fill="grey" stroke="grey" stroke-width="2" points="2711.65,-421.701 2702.1,-417.104 2706.7,-426.65 2711.65,-421.701"/>
</g>
<!-- 10 -->
<g id="node11" class="node"><title>10</title>
<path fill="none" stroke="#d86e56" stroke-width="2" stroke-dasharray="5,2" d="M3266.5,-110.5C3266.5,-110.5 3173.5,-110.5 3173.5,-110.5 3167.5,-110.5 3161.5,-104.5 3161.5,-98.5 3161.5,-98.5 3161.5,-86.5 3161.5,-86.5 3161.5,-80.5 3167.5,-74.5 3173.5,-74.5 3173.5,-74.5 3266.5,-74.5 3266.5,-74.5 3272.5,-74.5 3278.5,-80.5 3278.5,-86.5 3278.5,-86.5 3278.5,-98.5 3278.5,-98.5 3278.5,-104.5 3272.5,-110.5 3266.5,-110.5"/>
<text text-anchor="middle" x="3220" y="-95.5" font-family="sans" font-size="10.00">fastqc</text>
<text text-anchor="middle" x="3220" y="-84.5" font-family="sans" font-size="10.00">sample: A_H3K4me3</text>
</g>
<!-- 10&#45;&gt;0 -->
<g id="edge10" class="edge"><title>10&#45;&gt;0</title>
<path fill="none" stroke="grey" stroke-width="2" d="M3164.58,-74.4354C3160.35,-73.4932 3156.12,-72.6626 3152,-72 2890.41,-29.957 2036.11,-20.7988 1846.5,-19.2665"/>
<polygon fill="grey" stroke="grey" stroke-width="2" points="1846.25,-15.7645 1836.22,-19.1857 1846.19,-22.7643 1846.25,-15.7645"/>
</g>
<!-- 11 -->
<g id="node12" class="node"><title>11</title>
<path fill="none" stroke="#56a2d8" stroke-width="2" stroke-dasharray="5,2" d="M2317,-185C2317,-185 2255,-185 2255,-185 2249,-185 2243,-179 2243,-173 2243,-173 2243,-161 2243,-161 2243,-155 2249,-149 2255,-149 2255,-149 2317,-149 2317,-149 2323,-149 2329,-155 2329,-161 2329,-161 2329,-173 2329,-173 2329,-179 2323,-185 2317,-185"/>
<text text-anchor="middle" x="2286" y="-164.5" font-family="sans" font-size="10.00">MAnorm_anno</text>
</g>
<!-- 11&#45;&gt;0 -->
<g id="edge11" class="edge"><title>11&#45;&gt;0</title>
<path fill="none" stroke="grey" stroke-width="2" d="M2242.99,-149.214C2191.09,-129.303 2100.95,-95.8156 2022,-72 1961,-53.5981 1888.81,-36.6237 1846.08,-27.063"/>
<polygon fill="grey" stroke="grey" stroke-width="2" points="1846.65,-23.6053 1836.13,-24.8526 1845.13,-30.4386 1846.65,-23.6053"/>
</g>
<!-- 11&#45;&gt;15 -->
<g id="edge40" class="edge"><title>11&#45;&gt;15</title>
<path fill="none" stroke="grey" stroke-width="2" d="M2242.8,-151C2239.84,-150.245 2236.89,-149.566 2234,-149 1976.82,-98.6038 1663.97,-92.6538 1525.65,-92.7751"/>
<polygon fill="grey" stroke="grey" stroke-width="2" points="1525.59,-89.2751 1515.6,-92.795 1525.61,-96.2751 1525.59,-89.2751"/>
</g>
<!-- 12&#45;&gt;0 -->
<g id="edge12" class="edge"><title>12&#45;&gt;0</title>
<path fill="none" stroke="grey" stroke-width="2" d="M2704.4,-380.889C2713.72,-371.367 2723.95,-358.688 2729,-345 2748.07,-293.293 2747,-273.425 2730,-221 2704.77,-143.2 2693.61,-111.523 2622,-72 2553.52,-34.203 1996.44,-22.1545 1846.21,-19.5768"/>
<polygon fill="grey" stroke="grey" stroke-width="2" points="1846.16,-16.0756 1836.11,-19.4073 1846.05,-23.0746 1846.16,-16.0756"/>
</g>
<!-- 12&#45;&gt;1 -->
<g id="edge31" class="edge"><title>12&#45;&gt;1</title>
<path fill="none" stroke="grey" stroke-width="2" d="M2712.16,-387.43C2730.05,-378.891 2752.11,-364.983 2763,-345 2802.63,-272.264 2786.84,-169.264 2775.99,-120.763"/>
<polygon fill="grey" stroke="grey" stroke-width="2" points="2779.32,-119.669 2773.63,-110.731 2772.51,-121.266 2779.32,-119.669"/>
</g>
<!-- 12&#45;&gt;5 -->
<g id="edge34" class="edge"><title>12&#45;&gt;5</title>
<path fill="none" stroke="grey" stroke-width="2" d="M2664.73,-380.95C2654.18,-371.258 2641.71,-358.404 2633,-345 2600.72,-295.307 2617.75,-269.707 2584,-221 2554.45,-178.352 2508.01,-139.999 2476.58,-116.751"/>
<polygon fill="grey" stroke="grey" stroke-width="2" points="2478.28,-113.661 2468.14,-110.603 2474.16,-119.319 2478.28,-113.661"/>
</g>
<!-- 40 -->
<g id="node41" class="node"><title>40</title>
<path fill="none" stroke="#d6d856" stroke-width="2" stroke-dasharray="5,2" d="M2709,-265C2709,-265 2643,-265 2643,-265 2637,-265 2631,-259 2631,-253 2631,-253 2631,-241 2631,-241 2631,-235 2637,-229 2643,-229 2643,-229 2709,-229 2709,-229 2715,-229 2721,-235 2721,-241 2721,-241 2721,-253 2721,-253 2721,-259 2715,-265 2709,-265"/>
<text text-anchor="middle" x="2676" y="-244.5" font-family="sans" font-size="10.00">bam2bedgraph</text>
</g>
<!-- 12&#45;&gt;40 -->
<g id="edge94" class="edge"><title>12&#45;&gt;40</title>
<path fill="none" stroke="grey" stroke-width="2" d="M2664.62,-380.531C2655.19,-371.092 2644.99,-358.597 2640,-345 2631.09,-320.727 2643.58,-293.081 2656.22,-273.53"/>
<polygon fill="grey" stroke="grey" stroke-width="2" points="2659.2,-275.384 2661.97,-265.158 2653.42,-271.424 2659.2,-275.384"/>
</g>
<!-- 56 -->
<g id="node57" class="node"><title>56</title>
<path fill="none" stroke="#568ad8" stroke-width="2" stroke-dasharray="5,2" d="M2408,-345C2408,-345 2370,-345 2370,-345 2364,-345 2358,-339 2358,-333 2358,-333 2358,-321 2358,-321 2358,-315 2364,-309 2370,-309 2370,-309 2408,-309 2408,-309 2414,-309 2420,-315 2420,-321 2420,-321 2420,-333 2420,-333 2420,-339 2414,-345 2408,-345"/>
<text text-anchor="middle" x="2389" y="-324.5" font-family="sans" font-size="10.00">bam2bed</text>
</g>
<!-- 12&#45;&gt;56 -->
<g id="edge121" class="edge"><title>12&#45;&gt;56</title>
<path fill="none" stroke="grey" stroke-width="2" d="M2657.95,-391.602C2605.9,-379.294 2491.54,-352.25 2430.05,-337.708"/>
<polygon fill="grey" stroke="grey" stroke-width="2" points="2430.83,-334.295 2420.29,-335.4 2429.22,-341.108 2430.83,-334.295"/>
</g>
<!-- 60 -->
<g id="node61" class="node"><title>60</title>
<path fill="none" stroke="#56d88a" stroke-width="2" stroke-dasharray="5,2" d="M2708.5,-345C2708.5,-345 2661.5,-345 2661.5,-345 2655.5,-345 2649.5,-339 2649.5,-333 2649.5,-333 2649.5,-321 2649.5,-321 2649.5,-315 2655.5,-309 2661.5,-309 2661.5,-309 2708.5,-309 2708.5,-309 2714.5,-309 2720.5,-315 2720.5,-321 2720.5,-321 2720.5,-333 2720.5,-333 2720.5,-339 2714.5,-345 2708.5,-345"/>
<text text-anchor="middle" x="2685" y="-324.5" font-family="sans" font-size="10.00">bam2count</text>
</g>
<!-- 12&#45;&gt;60 -->
<g id="edge125" class="edge"><title>12&#45;&gt;60</title>
<path fill="none" stroke="grey" stroke-width="2" d="M2685,-380.697C2685,-372.983 2685,-363.712 2685,-355.112"/>
<polygon fill="grey" stroke="grey" stroke-width="2" points="2688.5,-355.104 2685,-345.104 2681.5,-355.104 2688.5,-355.104"/>
</g>
<!-- 13 -->
<g id="node14" class="node"><title>13</title>
<path fill="none" stroke="#56a2d8" stroke-width="2" stroke-dasharray="5,2" d="M1797,-185C1797,-185 1735,-185 1735,-185 1729,-185 1723,-179 1723,-173 1723,-173 1723,-161 1723,-161 1723,-155 1729,-149 1735,-149 1735,-149 1797,-149 1797,-149 1803,-149 1809,-155 1809,-161 1809,-161 1809,-173 1809,-173 1809,-179 1803,-185 1797,-185"/>
<text text-anchor="middle" x="1766" y="-164.5" font-family="sans" font-size="10.00">MAnorm_anno</text>
</g>
<!-- 13&#45;&gt;0 -->
<g id="edge13" class="edge"><title>13&#45;&gt;0</title>
<path fill="none" stroke="grey" stroke-width="2" d="M1771.02,-148.85C1778.43,-123.512 1792.37,-75.8452 1801.15,-45.8488"/>
<polygon fill="grey" stroke="grey" stroke-width="2" points="1804.57,-46.6217 1804.02,-36.0412 1797.85,-44.6564 1804.57,-46.6217"/>
</g>
<!-- 13&#45;&gt;15 -->
<g id="edge45" class="edge"><title>13&#45;&gt;15</title>
<path fill="none" stroke="grey" stroke-width="2" d="M1722.98,-151.546C1719.95,-150.649 1716.93,-149.791 1714,-149 1650.88,-131.997 1578.03,-116.821 1525.53,-106.655"/>
<polygon fill="grey" stroke="grey" stroke-width="2" points="1526.12,-103.204 1515.64,-104.752 1524.8,-110.078 1526.12,-103.204"/>
</g>
<!-- 14 -->
<g id="node15" class="node"><title>14</title>
<path fill="none" stroke="#56a2d8" stroke-width="2" stroke-dasharray="5,2" d="M2213,-185C2213,-185 2151,-185 2151,-185 2145,-185 2139,-179 2139,-173 2139,-173 2139,-161 2139,-161 2139,-155 2145,-149 2151,-149 2151,-149 2213,-149 2213,-149 2219,-149 2225,-155 2225,-161 2225,-161 2225,-173 2225,-173 2225,-179 2219,-185 2213,-185"/>
<text text-anchor="middle" x="2182" y="-164.5" font-family="sans" font-size="10.00">MAnorm_anno</text>
</g>
<!-- 14&#45;&gt;0 -->
<g id="edge14" class="edge"><title>14&#45;&gt;0</title>
<path fill="none" stroke="grey" stroke-width="2" d="M2143.02,-148.865C2098.54,-129.497 2023.48,-97.3623 1958,-72 1920.05,-57.2995 1876.09,-41.8521 1845.8,-31.4523"/>
<polygon fill="grey" stroke="grey" stroke-width="2" points="1846.68,-28.0532 1836.08,-28.1273 1844.41,-34.6762 1846.68,-28.0532"/>
</g>
<!-- 14&#45;&gt;15 -->
<g id="edge49" class="edge"><title>14&#45;&gt;15</title>
<path fill="none" stroke="grey" stroke-width="2" d="M2138.79,-151.036C2135.84,-150.272 2132.89,-149.582 2130,-149 1913.02,-105.256 1650.24,-95.8284 1525.88,-93.9073"/>
<polygon fill="grey" stroke="grey" stroke-width="2" points="1525.78,-90.4056 1515.73,-93.7625 1525.68,-97.4048 1525.78,-90.4056"/>
</g>
<!-- 15&#45;&gt;0 -->
<g id="edge15" class="edge"><title>15&#45;&gt;0</title>
<path fill="none" stroke="grey" stroke-width="2" d="M1515.84,-78.8715C1589.82,-63.7611 1711.3,-38.952 1772.03,-26.5508"/>
<polygon fill="grey" stroke="grey" stroke-width="2" points="1772.84,-29.9577 1781.93,-24.5274 1771.44,-23.0993 1772.84,-29.9577"/>
</g>
<!-- 16 -->
<g id="node17" class="node"><title>16</title>
<path fill="none" stroke="#56a2d8" stroke-width="2" stroke-dasharray="5,2" d="M2109,-185C2109,-185 2047,-185 2047,-185 2041,-185 2035,-179 2035,-173 2035,-173 2035,-161 2035,-161 2035,-155 2041,-149 2047,-149 2047,-149 2109,-149 2109,-149 2115,-149 2121,-155 2121,-161 2121,-161 2121,-173 2121,-173 2121,-179 2115,-185 2109,-185"/>
<text text-anchor="middle" x="2078" y="-164.5" font-family="sans" font-size="10.00">MAnorm_anno</text>
</g>
<!-- 16&#45;&gt;0 -->
<g id="edge16" class="edge"><title>16&#45;&gt;0</title>
<path fill="none" stroke="grey" stroke-width="2" d="M2046.88,-148.994C1996.78,-121.616 1898.49,-67.9062 1845.29,-38.8299"/>
<polygon fill="grey" stroke="grey" stroke-width="2" points="1846.66,-35.5941 1836.21,-33.87 1843.31,-41.7368 1846.66,-35.5941"/>
</g>
<!-- 16&#45;&gt;15 -->
<g id="edge56" class="edge"><title>16&#45;&gt;15</title>
<path fill="none" stroke="grey" stroke-width="2" d="M2034.78,-151.085C2031.83,-150.31 2028.88,-149.603 2026,-149 1848.62,-111.869 1634.99,-99.4887 1525.85,-95.4292"/>
<polygon fill="grey" stroke="grey" stroke-width="2" points="1525.74,-91.923 1515.62,-95.0618 1525.48,-98.9185 1525.74,-91.923"/>
</g>
<!-- 17 -->
<g id="node18" class="node"><title>17</title>
<path fill="none" stroke="#56a2d8" stroke-width="2" stroke-dasharray="5,2" d="M1277,-185C1277,-185 1215,-185 1215,-185 1209,-185 1203,-179 1203,-173 1203,-173 1203,-161 1203,-161 1203,-155 1209,-149 1215,-149 1215,-149 1277,-149 1277,-149 1283,-149 1289,-155 1289,-161 1289,-161 1289,-173 1289,-173 1289,-179 1283,-185 1277,-185"/>
<text text-anchor="middle" x="1246" y="-164.5" font-family="sans" font-size="10.00">MAnorm_anno</text>
</g>
<!-- 17&#45;&gt;0 -->
<g id="edge17" class="edge"><title>17&#45;&gt;0</title>
<path fill="none" stroke="grey" stroke-width="2" d="M1263.08,-148.864C1287.95,-124.318 1333.42,-81.0924 1354,-72 1428.77,-38.9604 1676.87,-24.8069 1771.7,-20.5131"/>
<polygon fill="grey" stroke="grey" stroke-width="2" points="1772.13,-23.9978 1781.96,-20.0601 1771.82,-17.0046 1772.13,-23.9978"/>
</g>
<!-- 17&#45;&gt;15 -->
<g id="edge57" class="edge"><title>17&#45;&gt;15</title>
<path fill="none" stroke="grey" stroke-width="2" d="M1289.1,-150.978C1319.86,-140.257 1361.59,-125.711 1395.37,-113.935"/>
<polygon fill="grey" stroke="grey" stroke-width="2" points="1396.84,-117.132 1405.13,-110.535 1394.53,-110.522 1396.84,-117.132"/>
</g>
<!-- 18 -->
<g id="node19" class="node"><title>18</title>
<path fill="none" stroke="#56a2d8" stroke-width="2" stroke-dasharray="5,2" d="M2005,-185C2005,-185 1943,-185 1943,-185 1937,-185 1931,-179 1931,-173 1931,-173 1931,-161 1931,-161 1931,-155 1937,-149 1943,-149 1943,-149 2005,-149 2005,-149 2011,-149 2017,-155 2017,-161 2017,-161 2017,-173 2017,-173 2017,-179 2011,-185 2005,-185"/>
<text text-anchor="middle" x="1974" y="-164.5" font-family="sans" font-size="10.00">MAnorm_anno</text>
</g>
<!-- 18&#45;&gt;0 -->
<g id="edge18" class="edge"><title>18&#45;&gt;0</title>
<path fill="none" stroke="grey" stroke-width="2" d="M1954.75,-148.85C1925.32,-122.626 1869.04,-72.4875 1835.68,-42.7715"/>
<polygon fill="grey" stroke="grey" stroke-width="2" points="1837.92,-40.08 1828.13,-36.0412 1833.27,-45.3066 1837.92,-40.08"/>
</g>
<!-- 18&#45;&gt;15 -->
<g id="edge59" class="edge"><title>18&#45;&gt;15</title>
<path fill="none" stroke="grey" stroke-width="2" d="M1930.77,-151.157C1927.82,-150.364 1924.88,-149.634 1922,-149 1783.57,-118.479 1618.15,-103.849 1525.69,-97.5807"/>
<polygon fill="grey" stroke="grey" stroke-width="2" points="1525.81,-94.0813 1515.6,-96.9105 1525.35,-101.066 1525.81,-94.0813"/>
</g>
<!-- 19 -->
<g id="node20" class="node"><title>19</title>
<path fill="none" stroke="#bed856" stroke-width="2" stroke-dasharray="5,2" d="M2601.5,-110.5C2601.5,-110.5 2544.5,-110.5 2544.5,-110.5 2538.5,-110.5 2532.5,-104.5 2532.5,-98.5 2532.5,-98.5 2532.5,-86.5 2532.5,-86.5 2532.5,-80.5 2538.5,-74.5 2544.5,-74.5 2544.5,-74.5 2601.5,-74.5 2601.5,-74.5 2607.5,-74.5 2613.5,-80.5 2613.5,-86.5 2613.5,-86.5 2613.5,-98.5 2613.5,-98.5 2613.5,-104.5 2607.5,-110.5 2601.5,-110.5"/>
<text text-anchor="middle" x="2573" y="-90" font-family="sans" font-size="10.00">bedgraph2tdf</text>
</g>
<!-- 19&#45;&gt;0 -->
<g id="edge19" class="edge"><title>19&#45;&gt;0</title>
<path fill="none" stroke="grey" stroke-width="2" d="M2532.46,-81.8235C2516.23,-78.2586 2497.31,-74.4878 2480,-72 2240.09,-37.5182 1948.47,-24.1203 1846.42,-20.2766"/>
<polygon fill="grey" stroke="grey" stroke-width="2" points="1846.42,-16.7747 1836.3,-19.9039 1846.17,-23.7699 1846.42,-16.7747"/>
</g>
<!-- 20 -->
<g id="node21" class="node"><title>20</title>
<path fill="none" stroke="#56a2d8" stroke-width="2" stroke-dasharray="5,2" d="M1485,-185C1485,-185 1423,-185 1423,-185 1417,-185 1411,-179 1411,-173 1411,-173 1411,-161 1411,-161 1411,-155 1417,-149 1423,-149 1423,-149 1485,-149 1485,-149 1491,-149 1497,-155 1497,-161 1497,-161 1497,-173 1497,-173 1497,-179 1491,-185 1485,-185"/>
<text text-anchor="middle" x="1454" y="-164.5" font-family="sans" font-size="10.00">MAnorm_anno</text>
</g>
<!-- 20&#45;&gt;0 -->
<g id="edge20" class="edge"><title>20&#45;&gt;0</title>
<path fill="none" stroke="grey" stroke-width="2" d="M1484.58,-148.844C1521.23,-128.727 1584.86,-95.1883 1642,-72 1685.68,-54.2757 1737.67,-38.5885 1771.91,-28.9671"/>
<polygon fill="grey" stroke="grey" stroke-width="2" points="1773.24,-32.2307 1781.93,-26.1804 1771.36,-25.4863 1773.24,-32.2307"/>
</g>
<!-- 20&#45;&gt;15 -->
<g id="edge47" class="edge"><title>20&#45;&gt;15</title>
<path fill="none" stroke="grey" stroke-width="2" d="M1454,-148.819C1454,-140.422 1454,-130.116 1454,-120.686"/>
<polygon fill="grey" stroke="grey" stroke-width="2" points="1457.5,-120.558 1454,-110.558 1450.5,-120.558 1457.5,-120.558"/>
</g>
<!-- 21 -->
<g id="node22" class="node"><title>21</title>
<path fill="none" stroke="#56a2d8" stroke-width="2" stroke-dasharray="5,2" d="M1901,-185C1901,-185 1839,-185 1839,-185 1833,-185 1827,-179 1827,-173 1827,-173 1827,-161 1827,-161 1827,-155 1833,-149 1839,-149 1839,-149 1901,-149 1901,-149 1907,-149 1913,-155 1913,-161 1913,-161 1913,-173 1913,-173 1913,-179 1907,-185 1901,-185"/>
<text text-anchor="middle" x="1870" y="-164.5" font-family="sans" font-size="10.00">MAnorm_anno</text>
</g>
<!-- 21&#45;&gt;0 -->
<g id="edge21" class="edge"><title>21&#45;&gt;0</title>
<path fill="none" stroke="grey" stroke-width="2" d="M1862.88,-148.85C1852.32,-123.401 1832.42,-75.4285 1819.98,-45.4569"/>
<polygon fill="grey" stroke="grey" stroke-width="2" points="1823.14,-43.9361 1816.07,-36.0412 1816.67,-46.6191 1823.14,-43.9361"/>
</g>
<!-- 21&#45;&gt;15 -->
<g id="edge52" class="edge"><title>21&#45;&gt;15</title>
<path fill="none" stroke="grey" stroke-width="2" d="M1826.74,-151.267C1823.8,-150.448 1820.86,-149.682 1818,-149 1717.92,-125.183 1599.82,-109.377 1525.91,-100.923"/>
<polygon fill="grey" stroke="grey" stroke-width="2" points="1526.11,-97.4237 1515.78,-99.7791 1525.32,-104.379 1526.11,-97.4237"/>
</g>
<!-- 22 -->
<g id="node23" class="node"><title>22</title>
<path fill="none" stroke="#56a2d8" stroke-width="2" stroke-dasharray="5,2" d="M1069,-185C1069,-185 1007,-185 1007,-185 1001,-185 995,-179 995,-173 995,-173 995,-161 995,-161 995,-155 1001,-149 1007,-149 1007,-149 1069,-149 1069,-149 1075,-149 1081,-155 1081,-161 1081,-161 1081,-173 1081,-173 1081,-179 1075,-185 1069,-185"/>
<text text-anchor="middle" x="1038" y="-164.5" font-family="sans" font-size="10.00">MAnorm_anno</text>
</g>
<!-- 22&#45;&gt;0 -->
<g id="edge22" class="edge"><title>22&#45;&gt;0</title>
<path fill="none" stroke="grey" stroke-width="2" d="M1081.11,-151.834C1084.12,-150.868 1087.1,-149.916 1090,-149 1142.28,-132.48 1160.06,-139.61 1208,-113 1232.24,-99.5472 1229.54,-82.9566 1255,-72 1348.41,-31.807 1662.75,-21.8785 1771.56,-19.6187"/>
<polygon fill="grey" stroke="grey" stroke-width="2" points="1771.8,-23.1147 1781.73,-19.4176 1771.66,-16.1161 1771.8,-23.1147"/>
</g>
<!-- 22&#45;&gt;15 -->
<g id="edge53" class="edge"><title>22&#45;&gt;15</title>
<path fill="none" stroke="grey" stroke-width="2" d="M1081.26,-151.267C1084.2,-150.448 1087.14,-149.682 1090,-149 1190.08,-125.183 1308.18,-109.377 1382.09,-100.923"/>
<polygon fill="grey" stroke="grey" stroke-width="2" points="1382.68,-104.379 1392.22,-99.7791 1381.89,-97.4237 1382.68,-104.379"/>
</g>
<!-- 23 -->
<g id="node24" class="node"><title>23</title>
<path fill="none" stroke="#56a2d8" stroke-width="2" stroke-dasharray="5,2" d="M965,-185C965,-185 903,-185 903,-185 897,-185 891,-179 891,-173 891,-173 891,-161 891,-161 891,-155 897,-149 903,-149 903,-149 965,-149 965,-149 971,-149 977,-155 977,-161 977,-161 977,-173 977,-173 977,-179 971,-185 965,-185"/>
<text text-anchor="middle" x="934" y="-164.5" font-family="sans" font-size="10.00">MAnorm_anno</text>
</g>
<!-- 23&#45;&gt;0 -->
<g id="edge23" class="edge"><title>23&#45;&gt;0</title>
<path fill="none" stroke="grey" stroke-width="2" d="M977.029,-151.562C980.055,-150.661 983.067,-149.797 986,-149 1058.43,-129.313 1082.44,-143.55 1151,-113 1179.5,-100.298 1178.75,-82.8692 1208,-72 1312.26,-33.2605 1657.14,-22.3214 1771.67,-19.7179"/>
<polygon fill="grey" stroke="grey" stroke-width="2" points="1771.78,-23.2163 1781.7,-19.4979 1771.63,-16.2179 1771.78,-23.2163"/>
</g>
<!-- 23&#45;&gt;15 -->
<g id="edge42" class="edge"><title>23&#45;&gt;15</title>
<path fill="none" stroke="grey" stroke-width="2" d="M977.234,-151.157C980.183,-150.364 983.125,-149.634 986,-149 1124.43,-118.479 1289.85,-103.849 1382.31,-97.5807"/>
<polygon fill="grey" stroke="grey" stroke-width="2" points="1382.65,-101.066 1392.4,-96.9105 1382.19,-94.0813 1382.65,-101.066"/>
</g>
<!-- 24 -->
<g id="node25" class="node"><title>24</title>
<path fill="none" stroke="#56a2d8" stroke-width="2" stroke-dasharray="5,2" d="M549,-185C549,-185 487,-185 487,-185 481,-185 475,-179 475,-173 475,-173 475,-161 475,-161 475,-155 481,-149 487,-149 487,-149 549,-149 549,-149 555,-149 561,-155 561,-161 561,-161 561,-173 561,-173 561,-179 555,-185 549,-185"/>
<text text-anchor="middle" x="518" y="-164.5" font-family="sans" font-size="10.00">MAnorm_anno</text>
</g>
<!-- 24&#45;&gt;0 -->
<g id="edge24" class="edge"><title>24&#45;&gt;0</title>
<path fill="none" stroke="grey" stroke-width="2" d="M556.093,-148.931C607.692,-126.714 703.224,-88.7541 789,-72 982.729,-34.1599 1610.94,-22.0514 1771.41,-19.5379"/>
<polygon fill="grey" stroke="grey" stroke-width="2" points="1771.77,-23.0328 1781.72,-19.3796 1771.67,-16.0336 1771.77,-23.0328"/>
</g>
<!-- 24&#45;&gt;15 -->
<g id="edge50" class="edge"><title>24&#45;&gt;15</title>
<path fill="none" stroke="grey" stroke-width="2" d="M561.196,-150.972C564.154,-150.223 567.108,-149.554 570,-149 725.095,-119.279 1200.34,-101.524 1382.19,-95.6651"/>
<polygon fill="grey" stroke="grey" stroke-width="2" points="1382.56,-99.1551 1392.45,-95.3373 1382.34,-92.1587 1382.56,-99.1551"/>
</g>
<!-- 25 -->
<g id="node26" class="node"><title>25</title>
<path fill="none" stroke="#56a2d8" stroke-width="2" stroke-dasharray="5,2" d="M757,-185C757,-185 695,-185 695,-185 689,-185 683,-179 683,-173 683,-173 683,-161 683,-161 683,-155 689,-149 695,-149 695,-149 757,-149 757,-149 763,-149 769,-155 769,-161 769,-161 769,-173 769,-173 769,-179 763,-185 757,-185"/>
<text text-anchor="middle" x="726" y="-164.5" font-family="sans" font-size="10.00">MAnorm_anno</text>
</g>
<!-- 25&#45;&gt;0 -->
<g id="edge25" class="edge"><title>25&#45;&gt;0</title>
<path fill="none" stroke="grey" stroke-width="2" d="M769.011,-151.492C772.041,-150.608 775.059,-149.767 778,-149 858.209,-128.082 881.105,-135.089 961,-113 1012.9,-98.6515 1022.32,-83.1539 1075,-72 1210.25,-43.3614 1641.39,-25.2666 1771.48,-20.3555"/>
<polygon fill="grey" stroke="grey" stroke-width="2" points="1771.86,-23.8437 1781.73,-19.9726 1771.6,-16.8486 1771.86,-23.8437"/>
</g>
<!-- 25&#45;&gt;15 -->
<g id="edge46" class="edge"><title>25&#45;&gt;15</title>
<path fill="none" stroke="grey" stroke-width="2" d="M769.208,-151.036C772.164,-150.272 775.114,-149.582 778,-149 892.04,-126.008 1232.74,-105.446 1382.28,-97.2591"/>
<polygon fill="grey" stroke="grey" stroke-width="2" points="1382.49,-100.753 1392.28,-96.7145 1382.11,-93.7636 1382.49,-100.753"/>
</g>
<!-- 26 -->
<g id="node27" class="node"><title>26</title>
<path fill="none" stroke="#56a2d8" stroke-width="2" stroke-dasharray="5,2" d="M861,-185C861,-185 799,-185 799,-185 793,-185 787,-179 787,-173 787,-173 787,-161 787,-161 787,-155 793,-149 799,-149 799,-149 861,-149 861,-149 867,-149 873,-155 873,-161 873,-161 873,-173 873,-173 873,-179 867,-185 861,-185"/>
<text text-anchor="middle" x="830" y="-164.5" font-family="sans" font-size="10.00">MAnorm_anno</text>
</g>
<!-- 26&#45;&gt;0 -->
<g id="edge26" class="edge"><title>26&#45;&gt;0</title>
<path fill="none" stroke="grey" stroke-width="2" d="M873.002,-151.459C876.034,-150.583 879.055,-149.753 882,-149 966.541,-127.396 992.725,-142.064 1075,-113 1111.19,-100.217 1114.2,-82.8846 1151,-72 1268.75,-37.1762 1650.4,-23.5165 1771.66,-19.9893"/>
<polygon fill="grey" stroke="grey" stroke-width="2" points="1772.01,-23.4807 1781.91,-19.6973 1771.81,-16.4835 1772.01,-23.4807"/>
</g>
<!-- 26&#45;&gt;15 -->
<g id="edge48" class="edge"><title>26&#45;&gt;15</title>
<path fill="none" stroke="grey" stroke-width="2" d="M873.219,-151.085C876.172,-150.31 879.118,-149.603 882,-149 975.748,-129.376 1250.62,-107.97 1382.2,-98.4926"/>
<polygon fill="grey" stroke="grey" stroke-width="2" points="1382.46,-101.983 1392.19,-97.7765 1381.96,-95.0008 1382.46,-101.983"/>
</g>
<!-- 27 -->
<g id="node28" class="node"><title>27</title>
<path fill="none" stroke="#56a2d8" stroke-width="2" stroke-dasharray="5,2" d="M1173,-185C1173,-185 1111,-185 1111,-185 1105,-185 1099,-179 1099,-173 1099,-173 1099,-161 1099,-161 1099,-155 1105,-149 1111,-149 1111,-149 1173,-149 1173,-149 1179,-149 1185,-155 1185,-161 1185,-161 1185,-173 1185,-173 1185,-179 1179,-185 1173,-185"/>
<text text-anchor="middle" x="1142" y="-164.5" font-family="sans" font-size="10.00">MAnorm_anno</text>
</g>
<!-- 27&#45;&gt;0 -->
<g id="edge27" class="edge"><title>27&#45;&gt;0</title>
<path fill="none" stroke="grey" stroke-width="2" d="M1185.21,-149.36C1206.98,-140.092 1233.29,-127.5 1255,-113 1277.5,-97.9752 1275.31,-83.0655 1300,-72 1384.47,-34.1421 1668.66,-22.7996 1771.48,-19.8897"/>
<polygon fill="grey" stroke="grey" stroke-width="2" points="1771.79,-23.3825 1781.7,-19.6116 1771.6,-16.385 1771.79,-23.3825"/>
</g>
<!-- 27&#45;&gt;15 -->
<g id="edge54" class="edge"><title>27&#45;&gt;15</title>
<path fill="none" stroke="grey" stroke-width="2" d="M1185.02,-151.546C1188.05,-150.649 1191.07,-149.791 1194,-149 1257.12,-131.997 1329.97,-116.821 1382.47,-106.655"/>
<polygon fill="grey" stroke="grey" stroke-width="2" points="1383.2,-110.078 1392.36,-104.752 1381.88,-103.204 1383.2,-110.078"/>
</g>
<!-- 28 -->
<g id="node29" class="node"><title>28</title>
<path fill="none" stroke="#56a2d8" stroke-width="2" stroke-dasharray="5,2" d="M1589,-185C1589,-185 1527,-185 1527,-185 1521,-185 1515,-179 1515,-173 1515,-173 1515,-161 1515,-161 1515,-155 1521,-149 1527,-149 1527,-149 1589,-149 1589,-149 1595,-149 1601,-155 1601,-161 1601,-161 1601,-173 1601,-173 1601,-179 1595,-185 1589,-185"/>
<text text-anchor="middle" x="1558" y="-164.5" font-family="sans" font-size="10.00">MAnorm_anno</text>
</g>
<!-- 28&#45;&gt;0 -->
<g id="edge28" class="edge"><title>28&#45;&gt;0</title>
<path fill="none" stroke="grey" stroke-width="2" d="M1585.95,-148.968C1617.24,-129.965 1669.54,-98.4181 1715,-72 1734.04,-60.9377 1755.4,-48.8633 1772.95,-39.0371"/>
<polygon fill="grey" stroke="grey" stroke-width="2" points="1774.72,-42.0552 1781.74,-34.1208 1771.31,-35.945 1774.72,-42.0552"/>
</g>
<!-- 28&#45;&gt;15 -->
<g id="edge55" class="edge"><title>28&#45;&gt;15</title>
<path fill="none" stroke="grey" stroke-width="2" d="M1533.35,-148.819C1519.49,-139.158 1502.01,-126.97 1486.99,-116.496"/>
<polygon fill="grey" stroke="grey" stroke-width="2" points="1488.67,-113.406 1478.47,-110.558 1484.67,-119.148 1488.67,-113.406"/>
</g>
<!-- 29 -->
<g id="node30" class="node"><title>29</title>
<path fill="none" stroke="#56a2d8" stroke-width="2" stroke-dasharray="5,2" d="M653,-185C653,-185 591,-185 591,-185 585,-185 579,-179 579,-173 579,-173 579,-161 579,-161 579,-155 585,-149 591,-149 591,-149 653,-149 653,-149 659,-149 665,-155 665,-161 665,-161 665,-173 665,-173 665,-179 659,-185 653,-185"/>
<text text-anchor="middle" x="622" y="-164.5" font-family="sans" font-size="10.00">MAnorm_anno</text>
</g>
<!-- 29&#45;&gt;0 -->
<g id="edge29" class="edge"><title>29&#45;&gt;0</title>
<path fill="none" stroke="grey" stroke-width="2" d="M665.208,-150.761C728.987,-129.018 852.509,-89.7608 961,-72 1271.17,-21.2227 1652.46,-18.255 1771.62,-18.6876"/>
<polygon fill="grey" stroke="grey" stroke-width="2" points="1771.67,-22.1878 1781.69,-18.7349 1771.7,-15.1879 1771.67,-22.1878"/>
</g>
<!-- 29&#45;&gt;15 -->
<g id="edge44" class="edge"><title>29&#45;&gt;15</title>
<path fill="none" stroke="grey" stroke-width="2" d="M665.201,-151C668.158,-150.245 671.111,-149.566 674,-149 808.49,-122.646 1216,-103.341 1382.23,-96.3576"/>
<polygon fill="grey" stroke="grey" stroke-width="2" points="1382.51,-99.8493 1392.35,-95.9352 1382.22,-92.8554 1382.51,-99.8493"/>
</g>
<!-- 30 -->
<g id="node31" class="node"><title>30</title>
<path fill="none" stroke="#56a2d8" stroke-width="2" stroke-dasharray="5,2" d="M445,-185C445,-185 383,-185 383,-185 377,-185 371,-179 371,-173 371,-173 371,-161 371,-161 371,-155 377,-149 383,-149 383,-149 445,-149 445,-149 451,-149 457,-155 457,-161 457,-161 457,-173 457,-173 457,-179 451,-185 445,-185"/>
<text text-anchor="middle" x="414" y="-164.5" font-family="sans" font-size="10.00">MAnorm_anno</text>
</g>
<!-- 30&#45;&gt;0 -->
<g id="edge30" class="edge"><title>30&#45;&gt;0</title>
<path fill="none" stroke="grey" stroke-width="2" d="M446.507,-148.991C491.03,-126.655 574.123,-88.3607 650,-72 871.31,-24.2808 1597.61,-19.4999 1771.4,-19.0434"/>
<polygon fill="grey" stroke="grey" stroke-width="2" points="1771.58,-22.5431 1781.58,-19.0201 1771.57,-15.5431 1771.58,-22.5431"/>
</g>
<!-- 30&#45;&gt;15 -->
<g id="edge58" class="edge"><title>30&#45;&gt;15</title>
<path fill="none" stroke="grey" stroke-width="2" d="M457.192,-150.95C460.151,-150.207 463.106,-149.545 466,-149 641.818,-115.908 1185.51,-99.926 1382.12,-95.1172"/>
<polygon fill="grey" stroke="grey" stroke-width="2" points="1382.42,-98.611 1392.33,-94.8698 1382.25,-91.613 1382.42,-98.611"/>
</g>
<!-- 31 -->
<g id="node32" class="node"><title>31</title>
<path fill="none" stroke="#59d856" stroke-width="2" stroke-dasharray="5,2" d="M1265.5,-273C1265.5,-273 1178.5,-273 1178.5,-273 1172.5,-273 1166.5,-267 1166.5,-261 1166.5,-261 1166.5,-233 1166.5,-233 1166.5,-227 1172.5,-221 1178.5,-221 1178.5,-221 1265.5,-221 1265.5,-221 1271.5,-221 1277.5,-227 1277.5,-233 1277.5,-233 1277.5,-261 1277.5,-261 1277.5,-267 1271.5,-273 1265.5,-273"/>
<text text-anchor="middle" x="1222" y="-261" font-family="sans" font-size="10.00">MAnorm</text>
<text text-anchor="middle" x="1222" y="-250" font-family="sans" font-size="10.00">p: 1e&#45;2</text>
<text text-anchor="middle" x="1222" y="-239" font-family="sans" font-size="10.00">peak1: A_H3K9me3</text>
<text text-anchor="middle" x="1222" y="-228" font-family="sans" font-size="10.00">peak2: B_H3K9me3</text>
</g>
<!-- 31&#45;&gt;2 -->
<g id="edge32" class="edge"><title>31&#45;&gt;2</title>
<path fill="none" stroke="grey" stroke-width="2" d="M1263.2,-220.891C1279.21,-211.137 1297.41,-200.05 1312.99,-190.555"/>
<polygon fill="grey" stroke="grey" stroke-width="2" points="1315.11,-193.363 1321.82,-185.17 1311.46,-187.385 1315.11,-193.363"/>
</g>
<!-- 32 -->
<g id="node33" class="node"><title>32</title>
<path fill="none" stroke="#59d856" stroke-width="2" stroke-dasharray="5,2" d="M1654,-273C1654,-273 1566,-273 1566,-273 1560,-273 1554,-267 1554,-261 1554,-261 1554,-233 1554,-233 1554,-227 1560,-221 1566,-221 1566,-221 1654,-221 1654,-221 1660,-221 1666,-227 1666,-233 1666,-233 1666,-261 1666,-261 1666,-267 1660,-273 1654,-273"/>
<text text-anchor="middle" x="1610" y="-261" font-family="sans" font-size="10.00">MAnorm</text>
<text text-anchor="middle" x="1610" y="-250" font-family="sans" font-size="10.00">p: 1e&#45;2</text>
<text text-anchor="middle" x="1610" y="-239" font-family="sans" font-size="10.00">peak1: B_H3K4me3</text>
<text text-anchor="middle" x="1610" y="-228" font-family="sans" font-size="10.00">peak2: D_H3K4me3</text>
</g>
<!-- 32&#45;&gt;4 -->
<g id="edge33" class="edge"><title>32&#45;&gt;4</title>
<path fill="none" stroke="grey" stroke-width="2" d="M1626.74,-220.891C1632.53,-212.207 1639.02,-202.465 1644.85,-193.732"/>
<polygon fill="grey" stroke="grey" stroke-width="2" points="1647.76,-195.673 1650.39,-185.411 1641.93,-191.79 1647.76,-195.673"/>
</g>
<!-- 33 -->
<g id="node34" class="node"><title>33</title>
<path fill="none" stroke="#59d856" stroke-width="2" stroke-dasharray="5,2" d="M2563,-273C2563,-273 2475,-273 2475,-273 2469,-273 2463,-267 2463,-261 2463,-261 2463,-233 2463,-233 2463,-227 2469,-221 2475,-221 2475,-221 2563,-221 2563,-221 2569,-221 2575,-227 2575,-233 2575,-233 2575,-261 2575,-261 2575,-267 2569,-273 2563,-273"/>
<text text-anchor="middle" x="2519" y="-261" font-family="sans" font-size="10.00">MAnorm</text>
<text text-anchor="middle" x="2519" y="-250" font-family="sans" font-size="10.00">p: 1e&#45;2</text>
<text text-anchor="middle" x="2519" y="-239" font-family="sans" font-size="10.00">peak1: A_H3K4me3</text>
<text text-anchor="middle" x="2519" y="-228" font-family="sans" font-size="10.00">peak2: D_H3K4me3</text>
</g>
<!-- 33&#45;&gt;8 -->
<g id="edge35" class="edge"><title>33&#45;&gt;8</title>
<path fill="none" stroke="grey" stroke-width="2" d="M2477.47,-220.891C2461.34,-211.137 2443.01,-200.05 2427.3,-190.555"/>
<polygon fill="grey" stroke="grey" stroke-width="2" points="2428.77,-187.349 2418.4,-185.17 2425.14,-193.34 2428.77,-187.349"/>
</g>
<!-- 34 -->
<g id="node35" class="node"><title>34</title>
<path fill="none" stroke="#59d856" stroke-width="2" stroke-dasharray="5,2" d="M2432.5,-273C2432.5,-273 2345.5,-273 2345.5,-273 2339.5,-273 2333.5,-267 2333.5,-261 2333.5,-261 2333.5,-233 2333.5,-233 2333.5,-227 2339.5,-221 2345.5,-221 2345.5,-221 2432.5,-221 2432.5,-221 2438.5,-221 2444.5,-227 2444.5,-233 2444.5,-233 2444.5,-261 2444.5,-261 2444.5,-267 2438.5,-273 2432.5,-273"/>
<text text-anchor="middle" x="2389" y="-261" font-family="sans" font-size="10.00">MAnorm</text>
<text text-anchor="middle" x="2389" y="-250" font-family="sans" font-size="10.00">p: 1e&#45;2</text>
<text text-anchor="middle" x="2389" y="-239" font-family="sans" font-size="10.00">peak1: A_H3K4me3</text>
<text text-anchor="middle" x="2389" y="-228" font-family="sans" font-size="10.00">peak2: E_H3K4me3</text>
</g>
<!-- 34&#45;&gt;11 -->
<g id="edge36" class="edge"><title>34&#45;&gt;11</title>
<path fill="none" stroke="grey" stroke-width="2" d="M2355.84,-220.891C2343.32,-211.411 2329.14,-200.671 2316.84,-191.357"/>
<polygon fill="grey" stroke="grey" stroke-width="2" points="2318.76,-188.417 2308.67,-185.17 2314.53,-193.998 2318.76,-188.417"/>
</g>
<!-- 35 -->
<g id="node36" class="node"><title>35</title>
<path fill="none" stroke="#59d856" stroke-width="2" stroke-dasharray="5,2" d="M1783.5,-273C1783.5,-273 1696.5,-273 1696.5,-273 1690.5,-273 1684.5,-267 1684.5,-261 1684.5,-261 1684.5,-233 1684.5,-233 1684.5,-227 1690.5,-221 1696.5,-221 1696.5,-221 1783.5,-221 1783.5,-221 1789.5,-221 1795.5,-227 1795.5,-233 1795.5,-233 1795.5,-261 1795.5,-261 1795.5,-267 1789.5,-273 1783.5,-273"/>
<text text-anchor="middle" x="1740" y="-261" font-family="sans" font-size="10.00">MAnorm</text>
<text text-anchor="middle" x="1740" y="-250" font-family="sans" font-size="10.00">p: 1e&#45;2</text>
<text text-anchor="middle" x="1740" y="-239" font-family="sans" font-size="10.00">peak1: C_H3K4me3</text>
<text text-anchor="middle" x="1740" y="-228" font-family="sans" font-size="10.00">peak2: E_H3K4me3</text>
</g>
<!-- 35&#45;&gt;13 -->
<g id="edge38" class="edge"><title>35&#45;&gt;13</title>
<path fill="none" stroke="grey" stroke-width="2" d="M1748.37,-220.891C1751.11,-212.659 1754.17,-203.477 1756.97,-195.104"/>
<polygon fill="grey" stroke="grey" stroke-width="2" points="1760.35,-196.004 1760.2,-185.411 1753.71,-193.791 1760.35,-196.004"/>
</g>
<!-- 36 -->
<g id="node37" class="node"><title>36</title>
<path fill="none" stroke="#59d856" stroke-width="2" stroke-dasharray="5,2" d="M2303.5,-273C2303.5,-273 2216.5,-273 2216.5,-273 2210.5,-273 2204.5,-267 2204.5,-261 2204.5,-261 2204.5,-233 2204.5,-233 2204.5,-227 2210.5,-221 2216.5,-221 2216.5,-221 2303.5,-221 2303.5,-221 2309.5,-221 2315.5,-227 2315.5,-233 2315.5,-233 2315.5,-261 2315.5,-261 2315.5,-267 2309.5,-273 2303.5,-273"/>
<text text-anchor="middle" x="2260" y="-261" font-family="sans" font-size="10.00">MAnorm</text>
<text text-anchor="middle" x="2260" y="-250" font-family="sans" font-size="10.00">p: 1e&#45;2</text>
<text text-anchor="middle" x="2260" y="-239" font-family="sans" font-size="10.00">peak1: A_H3K4me3</text>
<text text-anchor="middle" x="2260" y="-228" font-family="sans" font-size="10.00">peak2: C_H3K4me3</text>
</g>
<!-- 36&#45;&gt;14 -->
<g id="edge39" class="edge"><title>36&#45;&gt;14</title>
<path fill="none" stroke="grey" stroke-width="2" d="M2234.89,-220.891C2225.84,-211.845 2215.65,-201.652 2206.65,-192.645"/>
<polygon fill="grey" stroke="grey" stroke-width="2" points="2208.96,-190.007 2199.41,-185.411 2204.01,-194.957 2208.96,-190.007"/>
</g>
<!-- 37 -->
<g id="node38" class="node"><title>37</title>
<path fill="none" stroke="#59d856" stroke-width="2" stroke-dasharray="5,2" d="M2174,-273C2174,-273 2086,-273 2086,-273 2080,-273 2074,-267 2074,-261 2074,-261 2074,-233 2074,-233 2074,-227 2080,-221 2086,-221 2086,-221 2174,-221 2174,-221 2180,-221 2186,-227 2186,-233 2186,-233 2186,-261 2186,-261 2186,-267 2180,-273 2174,-273"/>
<text text-anchor="middle" x="2130" y="-261" font-family="sans" font-size="10.00">MAnorm</text>
<text text-anchor="middle" x="2130" y="-250" font-family="sans" font-size="10.00">p: 1e&#45;2</text>
<text text-anchor="middle" x="2130" y="-239" font-family="sans" font-size="10.00">peak1: D_H3K4me3</text>
<text text-anchor="middle" x="2130" y="-228" font-family="sans" font-size="10.00">peak2: E_H3K4me3</text>
</g>
<!-- 37&#45;&gt;16 -->
<g id="edge60" class="edge"><title>37&#45;&gt;16</title>
<path fill="none" stroke="grey" stroke-width="2" d="M2113.26,-220.891C2107.47,-212.207 2100.98,-202.465 2095.15,-193.732"/>
<polygon fill="grey" stroke="grey" stroke-width="2" points="2098.07,-191.79 2089.61,-185.411 2092.24,-195.673 2098.07,-191.79"/>
</g>
<!-- 38 -->
<g id="node39" class="node"><title>38</title>
<path fill="none" stroke="#59d856" stroke-width="2" stroke-dasharray="5,2" d="M1136.5,-273C1136.5,-273 1049.5,-273 1049.5,-273 1043.5,-273 1037.5,-267 1037.5,-261 1037.5,-261 1037.5,-233 1037.5,-233 1037.5,-227 1043.5,-221 1049.5,-221 1049.5,-221 1136.5,-221 1136.5,-221 1142.5,-221 1148.5,-227 1148.5,-233 1148.5,-233 1148.5,-261 1148.5,-261 1148.5,-267 1142.5,-273 1136.5,-273"/>
<text text-anchor="middle" x="1093" y="-261" font-family="sans" font-size="10.00">MAnorm</text>
<text text-anchor="middle" x="1093" y="-250" font-family="sans" font-size="10.00">p: 1e&#45;2</text>
<text text-anchor="middle" x="1093" y="-239" font-family="sans" font-size="10.00">peak1: A_H3K9me3</text>
<text text-anchor="middle" x="1093" y="-228" font-family="sans" font-size="10.00">peak2: E_H3K9me3</text>
</g>
<!-- 38&#45;&gt;17 -->
<g id="edge61" class="edge"><title>38&#45;&gt;17</title>
<path fill="none" stroke="grey" stroke-width="2" d="M1142.25,-220.891C1161.92,-210.864 1184.35,-199.427 1203.32,-189.76"/>
<polygon fill="grey" stroke="grey" stroke-width="2" points="1205,-192.83 1212.32,-185.17 1201.82,-186.594 1205,-192.83"/>
</g>
<!-- 39 -->
<g id="node40" class="node"><title>39</title>
<path fill="none" stroke="#59d856" stroke-width="2" stroke-dasharray="5,2" d="M2043.5,-273C2043.5,-273 1956.5,-273 1956.5,-273 1950.5,-273 1944.5,-267 1944.5,-261 1944.5,-261 1944.5,-233 1944.5,-233 1944.5,-227 1950.5,-221 1956.5,-221 1956.5,-221 2043.5,-221 2043.5,-221 2049.5,-221 2055.5,-227 2055.5,-233 2055.5,-233 2055.5,-261 2055.5,-261 2055.5,-267 2049.5,-273 2043.5,-273"/>
<text text-anchor="middle" x="2000" y="-261" font-family="sans" font-size="10.00">MAnorm</text>
<text text-anchor="middle" x="2000" y="-250" font-family="sans" font-size="10.00">p: 1e&#45;2</text>
<text text-anchor="middle" x="2000" y="-239" font-family="sans" font-size="10.00">peak1: A_H3K4me3</text>
<text text-anchor="middle" x="2000" y="-228" font-family="sans" font-size="10.00">peak2: B_H3K4me3</text>
</g>
<!-- 39&#45;&gt;18 -->
<g id="edge62" class="edge"><title>39&#45;&gt;18</title>
<path fill="none" stroke="grey" stroke-width="2" d="M1991.63,-220.891C1988.89,-212.659 1985.83,-203.477 1983.03,-195.104"/>
<polygon fill="grey" stroke="grey" stroke-width="2" points="1986.29,-193.791 1979.8,-185.411 1979.65,-196.004 1986.29,-193.791"/>
</g>
<!-- 40&#45;&gt;19 -->
<g id="edge63" class="edge"><title>40&#45;&gt;19</title>
<path fill="none" stroke="grey" stroke-width="2" d="M2666.39,-228.774C2655.19,-209.059 2635.81,-176.011 2617,-149 2609.82,-138.699 2601.37,-127.787 2593.81,-118.39"/>
<polygon fill="grey" stroke="grey" stroke-width="2" points="2596.47,-116.116 2587.44,-110.575 2591.04,-120.538 2596.47,-116.116"/>
</g>
<!-- 41 -->
<g id="node42" class="node"><title>41</title>
<path fill="none" stroke="#59d856" stroke-width="2" stroke-dasharray="5,2" d="M1394.5,-273C1394.5,-273 1307.5,-273 1307.5,-273 1301.5,-273 1295.5,-267 1295.5,-261 1295.5,-261 1295.5,-233 1295.5,-233 1295.5,-227 1301.5,-221 1307.5,-221 1307.5,-221 1394.5,-221 1394.5,-221 1400.5,-221 1406.5,-227 1406.5,-233 1406.5,-233 1406.5,-261 1406.5,-261 1406.5,-267 1400.5,-273 1394.5,-273"/>
<text text-anchor="middle" x="1351" y="-261" font-family="sans" font-size="10.00">MAnorm</text>
<text text-anchor="middle" x="1351" y="-250" font-family="sans" font-size="10.00">p: 1e&#45;2</text>
<text text-anchor="middle" x="1351" y="-239" font-family="sans" font-size="10.00">peak1: B_H3K4me3</text>
<text text-anchor="middle" x="1351" y="-228" font-family="sans" font-size="10.00">peak2: C_H3K4me3</text>
</g>
<!-- 41&#45;&gt;20 -->
<g id="edge64" class="edge"><title>41&#45;&gt;20</title>
<path fill="none" stroke="grey" stroke-width="2" d="M1384.16,-220.891C1396.68,-211.411 1410.86,-200.671 1423.16,-191.357"/>
<polygon fill="grey" stroke="grey" stroke-width="2" points="1425.47,-193.998 1431.33,-185.17 1421.24,-188.417 1425.47,-193.998"/>
</g>
<!-- 42 -->
<g id="node43" class="node"><title>42</title>
<path fill="none" stroke="#59d856" stroke-width="2" stroke-dasharray="5,2" d="M1914,-273C1914,-273 1826,-273 1826,-273 1820,-273 1814,-267 1814,-261 1814,-261 1814,-233 1814,-233 1814,-227 1820,-221 1826,-221 1826,-221 1914,-221 1914,-221 1920,-221 1926,-227 1926,-233 1926,-233 1926,-261 1926,-261 1926,-267 1920,-273 1914,-273"/>
<text text-anchor="middle" x="1870" y="-261" font-family="sans" font-size="10.00">MAnorm</text>
<text text-anchor="middle" x="1870" y="-250" font-family="sans" font-size="10.00">p: 1e&#45;2</text>
<text text-anchor="middle" x="1870" y="-239" font-family="sans" font-size="10.00">peak1: C_H3K4me3</text>
<text text-anchor="middle" x="1870" y="-228" font-family="sans" font-size="10.00">peak2: D_H3K4me3</text>
</g>
<!-- 42&#45;&gt;21 -->
<g id="edge65" class="edge"><title>42&#45;&gt;21</title>
<path fill="none" stroke="grey" stroke-width="2" d="M1870,-220.891C1870,-212.84 1870,-203.88 1870,-195.658"/>
<polygon fill="grey" stroke="grey" stroke-width="2" points="1873.5,-195.411 1870,-185.411 1866.5,-195.411 1873.5,-195.411"/>
</g>
<!-- 43 -->
<g id="node44" class="node"><title>43</title>
<path fill="none" stroke="#59d856" stroke-width="2" stroke-dasharray="5,2" d="M878.5,-273C878.5,-273 791.5,-273 791.5,-273 785.5,-273 779.5,-267 779.5,-261 779.5,-261 779.5,-233 779.5,-233 779.5,-227 785.5,-221 791.5,-221 791.5,-221 878.5,-221 878.5,-221 884.5,-221 890.5,-227 890.5,-233 890.5,-233 890.5,-261 890.5,-261 890.5,-267 884.5,-273 878.5,-273"/>
<text text-anchor="middle" x="835" y="-261" font-family="sans" font-size="10.00">MAnorm</text>
<text text-anchor="middle" x="835" y="-250" font-family="sans" font-size="10.00">p: 1e&#45;2</text>
<text text-anchor="middle" x="835" y="-239" font-family="sans" font-size="10.00">peak1: B_H3K9me3</text>
<text text-anchor="middle" x="835" y="-228" font-family="sans" font-size="10.00">peak2: E_H3K9me3</text>
</g>
<!-- 43&#45;&gt;22 -->
<g id="edge66" class="edge"><title>43&#45;&gt;22</title>
<path fill="none" stroke="grey" stroke-width="2" d="M890.837,-224.158C893.597,-223.088 896.329,-222.031 899,-221 927.415,-210.033 959.149,-197.923 985.114,-188.05"/>
<polygon fill="grey" stroke="grey" stroke-width="2" points="986.659,-191.207 994.763,-184.383 984.172,-184.663 986.659,-191.207"/>
</g>
<!-- 44 -->
<g id="node45" class="node"><title>44</title>
<path fill="none" stroke="#59d856" stroke-width="2" stroke-dasharray="5,2" d="M749.5,-273C749.5,-273 662.5,-273 662.5,-273 656.5,-273 650.5,-267 650.5,-261 650.5,-261 650.5,-233 650.5,-233 650.5,-227 656.5,-221 662.5,-221 662.5,-221 749.5,-221 749.5,-221 755.5,-221 761.5,-227 761.5,-233 761.5,-233 761.5,-261 761.5,-261 761.5,-267 755.5,-273 749.5,-273"/>
<text text-anchor="middle" x="706" y="-261" font-family="sans" font-size="10.00">MAnorm</text>
<text text-anchor="middle" x="706" y="-250" font-family="sans" font-size="10.00">p: 1e&#45;2</text>
<text text-anchor="middle" x="706" y="-239" font-family="sans" font-size="10.00">peak1: B_H3K9me3</text>
<text text-anchor="middle" x="706" y="-228" font-family="sans" font-size="10.00">peak2: C_H3K9me3</text>
</g>
<!-- 44&#45;&gt;23 -->
<g id="edge67" class="edge"><title>44&#45;&gt;23</title>
<path fill="none" stroke="grey" stroke-width="2" d="M761.772,-223.982C764.548,-222.958 767.303,-221.959 770,-221 816.473,-204.472 830.673,-201.439 881.34,-185.192"/>
<polygon fill="grey" stroke="grey" stroke-width="2" points="882.432,-188.517 890.875,-182.117 880.284,-181.855 882.432,-188.517"/>
</g>
<!-- 45 -->
<g id="node46" class="node"><title>45</title>
<path fill="none" stroke="#59d856" stroke-width="2" stroke-dasharray="5,2" d="M230,-273C230,-273 142,-273 142,-273 136,-273 130,-267 130,-261 130,-261 130,-233 130,-233 130,-227 136,-221 142,-221 142,-221 230,-221 230,-221 236,-221 242,-227 242,-233 242,-233 242,-261 242,-261 242,-267 236,-273 230,-273"/>
<text text-anchor="middle" x="186" y="-261" font-family="sans" font-size="10.00">MAnorm</text>
<text text-anchor="middle" x="186" y="-250" font-family="sans" font-size="10.00">p: 1e&#45;2</text>
<text text-anchor="middle" x="186" y="-239" font-family="sans" font-size="10.00">peak1: D_H3K9me3</text>
<text text-anchor="middle" x="186" y="-228" font-family="sans" font-size="10.00">peak2: E_H3K9me3</text>
</g>
<!-- 45&#45;&gt;24 -->
<g id="edge68" class="edge"><title>45&#45;&gt;24</title>
<path fill="none" stroke="grey" stroke-width="2" d="M242.139,-223.613C245.118,-222.675 248.084,-221.796 251,-221 341.361,-196.328 370.017,-207.321 464.732,-185.095"/>
<polygon fill="grey" stroke="grey" stroke-width="2" points="465.828,-188.431 474.729,-182.684 464.187,-181.626 465.828,-188.431"/>
</g>
<!-- 46 -->
<g id="node47" class="node"><title>46</title>
<path fill="none" stroke="#59d856" stroke-width="2" stroke-dasharray="5,2" d="M489.5,-273C489.5,-273 402.5,-273 402.5,-273 396.5,-273 390.5,-267 390.5,-261 390.5,-261 390.5,-233 390.5,-233 390.5,-227 396.5,-221 402.5,-221 402.5,-221 489.5,-221 489.5,-221 495.5,-221 501.5,-227 501.5,-233 501.5,-233 501.5,-261 501.5,-261 501.5,-267 495.5,-273 489.5,-273"/>
<text text-anchor="middle" x="446" y="-261" font-family="sans" font-size="10.00">MAnorm</text>
<text text-anchor="middle" x="446" y="-250" font-family="sans" font-size="10.00">p: 1e&#45;2</text>
<text text-anchor="middle" x="446" y="-239" font-family="sans" font-size="10.00">peak1: C_H3K9me3</text>
<text text-anchor="middle" x="446" y="-228" font-family="sans" font-size="10.00">peak2: E_H3K9me3</text>
</g>
<!-- 46&#45;&gt;25 -->
<g id="edge69" class="edge"><title>46&#45;&gt;25</title>
<path fill="none" stroke="grey" stroke-width="2" d="M501.835,-223.915C504.92,-222.885 507.99,-221.906 511,-221 578.991,-200.542 600.586,-204.176 672.911,-185.136"/>
<polygon fill="grey" stroke="grey" stroke-width="2" points="674.221,-188.408 682.969,-182.43 672.403,-181.648 674.221,-188.408"/>
</g>
<!-- 47 -->
<g id="node48" class="node"><title>47</title>
<path fill="none" stroke="#59d856" stroke-width="2" stroke-dasharray="5,2" d="M620,-273C620,-273 532,-273 532,-273 526,-273 520,-267 520,-261 520,-261 520,-233 520,-233 520,-227 526,-221 532,-221 532,-221 620,-221 620,-221 626,-221 632,-227 632,-233 632,-233 632,-261 632,-261 632,-267 626,-273 620,-273"/>
<text text-anchor="middle" x="576" y="-261" font-family="sans" font-size="10.00">MAnorm</text>
<text text-anchor="middle" x="576" y="-250" font-family="sans" font-size="10.00">p: 1e&#45;2</text>
<text text-anchor="middle" x="576" y="-239" font-family="sans" font-size="10.00">peak1: A_H3K9me3</text>
<text text-anchor="middle" x="576" y="-228" font-family="sans" font-size="10.00">peak2: D_H3K9me3</text>
</g>
<!-- 47&#45;&gt;26 -->
<g id="edge70" class="edge"><title>47&#45;&gt;26</title>
<path fill="none" stroke="grey" stroke-width="2" d="M632.235,-223.936C635.189,-222.913 638.123,-221.928 641,-221 697.99,-202.615 715.876,-202.729 777.142,-185.149"/>
<polygon fill="grey" stroke="grey" stroke-width="2" points="778.309,-188.455 786.931,-182.297 776.351,-181.734 778.309,-188.455"/>
</g>
<!-- 48 -->
<g id="node49" class="node"><title>48</title>
<path fill="none" stroke="#59d856" stroke-width="2" stroke-dasharray="5,2" d="M1007.5,-273C1007.5,-273 920.5,-273 920.5,-273 914.5,-273 908.5,-267 908.5,-261 908.5,-261 908.5,-233 908.5,-233 908.5,-227 914.5,-221 920.5,-221 920.5,-221 1007.5,-221 1007.5,-221 1013.5,-221 1019.5,-227 1019.5,-233 1019.5,-233 1019.5,-261 1019.5,-261 1019.5,-267 1013.5,-273 1007.5,-273"/>
<text text-anchor="middle" x="964" y="-261" font-family="sans" font-size="10.00">MAnorm</text>
<text text-anchor="middle" x="964" y="-250" font-family="sans" font-size="10.00">p: 1e&#45;2</text>
<text text-anchor="middle" x="964" y="-239" font-family="sans" font-size="10.00">peak1: A_H3K9me3</text>
<text text-anchor="middle" x="964" y="-228" font-family="sans" font-size="10.00">peak2: C_H3K9me3</text>
</g>
<!-- 48&#45;&gt;27 -->
<g id="edge71" class="edge"><title>48&#45;&gt;27</title>
<path fill="none" stroke="grey" stroke-width="2" d="M1019.83,-221.534C1043.47,-211.175 1070.76,-199.219 1093.54,-189.237"/>
<polygon fill="grey" stroke="grey" stroke-width="2" points="1095.25,-192.309 1103,-185.09 1092.44,-185.898 1095.25,-192.309"/>
</g>
<!-- 49 -->
<g id="node50" class="node"><title>49</title>
<path fill="none" stroke="#59d856" stroke-width="2" stroke-dasharray="5,2" d="M1523.5,-273C1523.5,-273 1436.5,-273 1436.5,-273 1430.5,-273 1424.5,-267 1424.5,-261 1424.5,-261 1424.5,-233 1424.5,-233 1424.5,-227 1430.5,-221 1436.5,-221 1436.5,-221 1523.5,-221 1523.5,-221 1529.5,-221 1535.5,-227 1535.5,-233 1535.5,-233 1535.5,-261 1535.5,-261 1535.5,-267 1529.5,-273 1523.5,-273"/>
<text text-anchor="middle" x="1480" y="-261" font-family="sans" font-size="10.00">MAnorm</text>
<text text-anchor="middle" x="1480" y="-250" font-family="sans" font-size="10.00">p: 1e&#45;2</text>
<text text-anchor="middle" x="1480" y="-239" font-family="sans" font-size="10.00">peak1: B_H3K4me3</text>
<text text-anchor="middle" x="1480" y="-228" font-family="sans" font-size="10.00">peak2: E_H3K4me3</text>
</g>
<!-- 49&#45;&gt;28 -->
<g id="edge72" class="edge"><title>49&#45;&gt;28</title>
<path fill="none" stroke="grey" stroke-width="2" d="M1505.11,-220.891C1514.16,-211.845 1524.35,-201.652 1533.35,-192.645"/>
<polygon fill="grey" stroke="grey" stroke-width="2" points="1535.99,-194.957 1540.59,-185.411 1531.04,-190.007 1535.99,-194.957"/>
</g>
<!-- 50 -->
<g id="node51" class="node"><title>50</title>
<path fill="none" stroke="#59d856" stroke-width="2" stroke-dasharray="5,2" d="M360,-273C360,-273 272,-273 272,-273 266,-273 260,-267 260,-261 260,-261 260,-233 260,-233 260,-227 266,-221 272,-221 272,-221 360,-221 360,-221 366,-221 372,-227 372,-233 372,-233 372,-261 372,-261 372,-267 366,-273 360,-273"/>
<text text-anchor="middle" x="316" y="-261" font-family="sans" font-size="10.00">MAnorm</text>
<text text-anchor="middle" x="316" y="-250" font-family="sans" font-size="10.00">p: 1e&#45;2</text>
<text text-anchor="middle" x="316" y="-239" font-family="sans" font-size="10.00">peak1: B_H3K9me3</text>
<text text-anchor="middle" x="316" y="-228" font-family="sans" font-size="10.00">peak2: D_H3K9me3</text>
</g>
<!-- 50&#45;&gt;29 -->
<g id="edge73" class="edge"><title>50&#45;&gt;29</title>
<path fill="none" stroke="grey" stroke-width="2" d="M372.161,-223.693C375.134,-222.734 378.093,-221.829 381,-221 460.183,-198.428 485.334,-205.723 569.048,-185.047"/>
<polygon fill="grey" stroke="grey" stroke-width="2" points="570.16,-188.376 578.995,-182.528 568.442,-181.59 570.16,-188.376"/>
</g>
<!-- 51 -->
<g id="node52" class="node"><title>51</title>
<path fill="none" stroke="#59d856" stroke-width="2" stroke-dasharray="5,2" d="M100,-273C100,-273 12,-273 12,-273 6,-273 0,-267 0,-261 0,-261 0,-233 0,-233 0,-227 6,-221 12,-221 12,-221 100,-221 100,-221 106,-221 112,-227 112,-233 112,-233 112,-261 112,-261 112,-267 106,-273 100,-273"/>
<text text-anchor="middle" x="56" y="-261" font-family="sans" font-size="10.00">MAnorm</text>
<text text-anchor="middle" x="56" y="-250" font-family="sans" font-size="10.00">p: 1e&#45;2</text>
<text text-anchor="middle" x="56" y="-239" font-family="sans" font-size="10.00">peak1: C_H3K9me3</text>
<text text-anchor="middle" x="56" y="-228" font-family="sans" font-size="10.00">peak2: D_H3K9me3</text>
</g>
<!-- 51&#45;&gt;30 -->
<g id="edge74" class="edge"><title>51&#45;&gt;30</title>
<path fill="none" stroke="grey" stroke-width="2" d="M112.152,-223.66C115.127,-222.71 118.089,-221.815 121,-221 203.178,-197.985 301.215,-182.613 360.482,-174.597"/>
<polygon fill="grey" stroke="grey" stroke-width="2" points="361.276,-178.023 370.726,-173.233 360.352,-171.084 361.276,-178.023"/>
</g>
<!-- 52 -->
<g id="node53" class="node"><title>52</title>
<path fill="none" stroke="#568ad8" stroke-width="2" stroke-dasharray="5,2" d="M1048,-345C1048,-345 1010,-345 1010,-345 1004,-345 998,-339 998,-333 998,-333 998,-321 998,-321 998,-315 1004,-309 1010,-309 1010,-309 1048,-309 1048,-309 1054,-309 1060,-315 1060,-321 1060,-321 1060,-333 1060,-333 1060,-339 1054,-345 1048,-345"/>
<text text-anchor="middle" x="1029" y="-324.5" font-family="sans" font-size="10.00">bam2bed</text>
</g>
<!-- 52&#45;&gt;31 -->
<g id="edge75" class="edge"><title>52&#45;&gt;31</title>
<path fill="none" stroke="grey" stroke-width="2" d="M1060.01,-313.468C1086,-302.964 1123.99,-287.609 1156.65,-274.41"/>
<polygon fill="grey" stroke="grey" stroke-width="2" points="1158.19,-277.563 1166.15,-270.571 1155.57,-271.073 1158.19,-277.563"/>
</g>
<!-- 52&#45;&gt;38 -->
<g id="edge90" class="edge"><title>52&#45;&gt;38</title>
<path fill="none" stroke="grey" stroke-width="2" d="M1043.2,-308.689C1049.88,-300.554 1058.07,-290.574 1065.86,-281.073"/>
<polygon fill="grey" stroke="grey" stroke-width="2" points="1068.64,-283.208 1072.28,-273.257 1063.23,-278.768 1068.64,-283.208"/>
</g>
<!-- 52&#45;&gt;47 -->
<g id="edge107" class="edge"><title>52&#45;&gt;47</title>
<path fill="none" stroke="grey" stroke-width="2" d="M997.851,-322.687C921.411,-314.413 725.308,-292.274 641.937,-272.902"/>
<polygon fill="grey" stroke="grey" stroke-width="2" points="642.656,-269.475 632.11,-270.494 640.99,-276.274 642.656,-269.475"/>
</g>
<!-- 52&#45;&gt;48 -->
<g id="edge109" class="edge"><title>52&#45;&gt;48</title>
<path fill="none" stroke="grey" stroke-width="2" d="M1014.57,-308.689C1007.8,-300.554 999.478,-290.574 991.561,-281.073"/>
<polygon fill="grey" stroke="grey" stroke-width="2" points="994.138,-278.699 985.048,-273.257 988.761,-283.18 994.138,-278.699"/>
</g>
<!-- 53 -->
<g id="node54" class="node"><title>53</title>
<path fill="none" stroke="#568ad8" stroke-width="2" stroke-dasharray="5,2" d="M839,-345C839,-345 801,-345 801,-345 795,-345 789,-339 789,-333 789,-333 789,-321 789,-321 789,-315 795,-309 801,-309 801,-309 839,-309 839,-309 845,-309 851,-315 851,-321 851,-321 851,-333 851,-333 851,-339 845,-345 839,-345"/>
<text text-anchor="middle" x="820" y="-324.5" font-family="sans" font-size="10.00">bam2bed</text>
</g>
<!-- 53&#45;&gt;31 -->
<g id="edge76" class="edge"><title>53&#45;&gt;31</title>
<path fill="none" stroke="grey" stroke-width="2" d="M851.122,-323.321C909.471,-317.828 1039.23,-303.38 1156.38,-272.917"/>
<polygon fill="grey" stroke="grey" stroke-width="2" points="1157.46,-276.253 1166.23,-270.31 1155.67,-269.486 1157.46,-276.253"/>
</g>
<!-- 53&#45;&gt;43 -->
<g id="edge100" class="edge"><title>53&#45;&gt;43</title>
<path fill="none" stroke="grey" stroke-width="2" d="M823.329,-308.689C824.768,-301.205 826.508,-292.159 828.2,-283.361"/>
<polygon fill="grey" stroke="grey" stroke-width="2" points="831.691,-283.738 830.143,-273.257 824.817,-282.416 831.691,-283.738"/>
</g>
<!-- 53&#45;&gt;44 -->
<g id="edge101" class="edge"><title>53&#45;&gt;44</title>
<path fill="none" stroke="grey" stroke-width="2" d="M794.982,-308.883C782.161,-300.11 766.149,-289.155 751.255,-278.964"/>
<polygon fill="grey" stroke="grey" stroke-width="2" points="752.877,-275.833 742.647,-273.075 748.924,-281.61 752.877,-275.833"/>
</g>
<!-- 53&#45;&gt;50 -->
<g id="edge114" class="edge"><title>53&#45;&gt;50</title>
<path fill="none" stroke="grey" stroke-width="2" d="M788.574,-320.706C766.829,-317.139 737.201,-312.471 711,-309 568.026,-290.062 526.247,-306.975 382.181,-273.014"/>
<polygon fill="grey" stroke="grey" stroke-width="2" points="382.627,-269.521 372.086,-270.591 380.993,-276.328 382.627,-269.521"/>
</g>
<!-- 54 -->
<g id="node55" class="node"><title>54</title>
<path fill="none" stroke="#568ad8" stroke-width="2" stroke-dasharray="5,2" d="M2119,-345C2119,-345 2081,-345 2081,-345 2075,-345 2069,-339 2069,-333 2069,-333 2069,-321 2069,-321 2069,-315 2075,-309 2081,-309 2081,-309 2119,-309 2119,-309 2125,-309 2131,-315 2131,-321 2131,-321 2131,-333 2131,-333 2131,-339 2125,-345 2119,-345"/>
<text text-anchor="middle" x="2100" y="-324.5" font-family="sans" font-size="10.00">bam2bed</text>
</g>
<!-- 54&#45;&gt;32 -->
<g id="edge77" class="edge"><title>54&#45;&gt;32</title>
<path fill="none" stroke="grey" stroke-width="2" d="M2068.75,-322.547C1982.28,-312.935 1742.4,-285.852 1676.1,-272.74"/>
<polygon fill="grey" stroke="grey" stroke-width="2" points="1676.62,-269.271 1666.1,-270.536 1675.11,-276.107 1676.62,-269.271"/>
</g>
<!-- 54&#45;&gt;33 -->
<g id="edge80" class="edge"><title>54&#45;&gt;33</title>
<path fill="none" stroke="grey" stroke-width="2" d="M2131.14,-323.569C2193.2,-318.234 2336.38,-303.469 2453,-273 2453.1,-272.974 2453.2,-272.948 2453.3,-272.921"/>
<polygon fill="grey" stroke="grey" stroke-width="2" points="2454.08,-276.338 2462.73,-270.217 2452.15,-269.609 2454.08,-276.338"/>
</g>
<!-- 54&#45;&gt;37 -->
<g id="edge88" class="edge"><title>54&#45;&gt;37</title>
<path fill="none" stroke="grey" stroke-width="2" d="M2106.66,-308.689C2109.6,-301.043 2113.17,-291.765 2116.62,-282.788"/>
<polygon fill="grey" stroke="grey" stroke-width="2" points="2119.96,-283.847 2120.29,-273.257 2113.43,-281.334 2119.96,-283.847"/>
</g>
<!-- 54&#45;&gt;42 -->
<g id="edge98" class="edge"><title>54&#45;&gt;42</title>
<path fill="none" stroke="grey" stroke-width="2" d="M2068.81,-316.555C2037.45,-306.934 1987.54,-291.28 1935.95,-273.266"/>
<polygon fill="grey" stroke="grey" stroke-width="2" points="1936.89,-269.889 1926.3,-269.876 1934.57,-276.493 1936.89,-269.889"/>
</g>
<!-- 55 -->
<g id="node56" class="node"><title>55</title>
<path fill="none" stroke="#568ad8" stroke-width="2" stroke-dasharray="5,2" d="M1564,-345C1564,-345 1526,-345 1526,-345 1520,-345 1514,-339 1514,-333 1514,-333 1514,-321 1514,-321 1514,-315 1520,-309 1526,-309 1526,-309 1564,-309 1564,-309 1570,-309 1576,-315 1576,-321 1576,-321 1576,-333 1576,-333 1576,-339 1570,-345 1564,-345"/>
<text text-anchor="middle" x="1545" y="-324.5" font-family="sans" font-size="10.00">bam2bed</text>
</g>
<!-- 55&#45;&gt;32 -->
<g id="edge78" class="edge"><title>55&#45;&gt;32</title>
<path fill="none" stroke="grey" stroke-width="2" d="M1559.43,-308.689C1566.2,-300.554 1574.52,-290.574 1582.44,-281.073"/>
<polygon fill="grey" stroke="grey" stroke-width="2" points="1585.24,-283.18 1588.95,-273.257 1579.86,-278.699 1585.24,-283.18"/>
</g>
<!-- 55&#45;&gt;39 -->
<g id="edge92" class="edge"><title>55&#45;&gt;39</title>
<path fill="none" stroke="grey" stroke-width="2" d="M1576.02,-322.726C1652.64,-314.494 1850.14,-292.36 1934.32,-272.818"/>
<polygon fill="grey" stroke="grey" stroke-width="2" points="1935.37,-276.165 1944.25,-270.387 1933.7,-269.366 1935.37,-276.165"/>
</g>
<!-- 55&#45;&gt;41 -->
<g id="edge95" class="edge"><title>55&#45;&gt;41</title>
<path fill="none" stroke="grey" stroke-width="2" d="M1513.83,-313.468C1487.61,-302.924 1449.23,-287.494 1416.32,-274.262"/>
<polygon fill="grey" stroke="grey" stroke-width="2" points="1417.33,-270.898 1406.75,-270.415 1414.72,-277.392 1417.33,-270.898"/>
</g>
<!-- 55&#45;&gt;49 -->
<g id="edge112" class="edge"><title>55&#45;&gt;49</title>
<path fill="none" stroke="grey" stroke-width="2" d="M1530.57,-308.689C1523.8,-300.554 1515.48,-290.574 1507.56,-281.073"/>
<polygon fill="grey" stroke="grey" stroke-width="2" points="1510.14,-278.699 1501.05,-273.257 1504.76,-283.18 1510.14,-278.699"/>
</g>
<!-- 56&#45;&gt;33 -->
<g id="edge79" class="edge"><title>56&#45;&gt;33</title>
<path fill="none" stroke="grey" stroke-width="2" d="M2417.53,-308.883C2432.42,-299.947 2451.09,-288.744 2468.34,-278.393"/>
<polygon fill="grey" stroke="grey" stroke-width="2" points="2470.43,-281.221 2477.21,-273.075 2466.83,-275.218 2470.43,-281.221"/>
</g>
<!-- 56&#45;&gt;34 -->
<g id="edge82" class="edge"><title>56&#45;&gt;34</title>
<path fill="none" stroke="grey" stroke-width="2" d="M2389,-308.689C2389,-301.205 2389,-292.159 2389,-283.361"/>
<polygon fill="grey" stroke="grey" stroke-width="2" points="2392.5,-283.257 2389,-273.257 2385.5,-283.257 2392.5,-283.257"/>
</g>
<!-- 56&#45;&gt;36 -->
<g id="edge86" class="edge"><title>56&#45;&gt;36</title>
<path fill="none" stroke="grey" stroke-width="2" d="M2360.69,-308.883C2345.91,-299.947 2327.38,-288.744 2310.27,-278.393"/>
<polygon fill="grey" stroke="grey" stroke-width="2" points="2311.84,-275.254 2301.47,-273.075 2308.22,-281.244 2311.84,-275.254"/>
</g>
<!-- 56&#45;&gt;39 -->
<g id="edge91" class="edge"><title>56&#45;&gt;39</title>
<path fill="none" stroke="grey" stroke-width="2" d="M2357.72,-323.039C2301.04,-317.215 2177.6,-302.422 2065.54,-272.906"/>
<polygon fill="grey" stroke="grey" stroke-width="2" points="2066.34,-269.496 2055.78,-270.288 2064.53,-276.258 2066.34,-269.496"/>
</g>
<!-- 57 -->
<g id="node58" class="node"><title>57</title>
<path fill="none" stroke="#568ad8" stroke-width="2" stroke-dasharray="5,2" d="M1924,-345C1924,-345 1886,-345 1886,-345 1880,-345 1874,-339 1874,-333 1874,-333 1874,-321 1874,-321 1874,-315 1880,-309 1886,-309 1886,-309 1924,-309 1924,-309 1930,-309 1936,-315 1936,-321 1936,-321 1936,-333 1936,-333 1936,-339 1930,-345 1924,-345"/>
<text text-anchor="middle" x="1905" y="-324.5" font-family="sans" font-size="10.00">bam2bed</text>
</g>
<!-- 57&#45;&gt;34 -->
<g id="edge81" class="edge"><title>57&#45;&gt;34</title>
<path fill="none" stroke="grey" stroke-width="2" d="M1936.13,-322.501C2021.65,-312.833 2257.65,-285.742 2323.34,-272.626"/>
<polygon fill="grey" stroke="grey" stroke-width="2" points="2324.26,-276.008 2333.26,-270.421 2322.74,-269.174 2324.26,-276.008"/>
</g>
<!-- 57&#45;&gt;35 -->
<g id="edge84" class="edge"><title>57&#45;&gt;35</title>
<path fill="none" stroke="grey" stroke-width="2" d="M1873.96,-311.329C1853.77,-301.781 1826.72,-288.994 1802.21,-277.41"/>
<polygon fill="grey" stroke="grey" stroke-width="2" points="1803.5,-274.148 1792.97,-273.038 1800.51,-280.477 1803.5,-274.148"/>
</g>
<!-- 57&#45;&gt;37 -->
<g id="edge87" class="edge"><title>57&#45;&gt;37</title>
<path fill="none" stroke="grey" stroke-width="2" d="M1936.2,-316.01C1968.36,-305.621 2019.87,-288.708 2064,-273 2064.1,-272.964 2064.2,-272.928 2064.3,-272.892"/>
<polygon fill="grey" stroke="grey" stroke-width="2" points="2065.67,-276.119 2073.89,-269.431 2063.29,-269.536 2065.67,-276.119"/>
</g>
<!-- 57&#45;&gt;49 -->
<g id="edge111" class="edge"><title>57&#45;&gt;49</title>
<path fill="none" stroke="grey" stroke-width="2" d="M1873.72,-321.078C1851.71,-317.637 1821.57,-312.965 1795,-309 1687.12,-292.896 1655.41,-300.843 1545.57,-272.895"/>
<polygon fill="grey" stroke="grey" stroke-width="2" points="1546.32,-269.474 1535.76,-270.358 1544.56,-276.251 1546.32,-269.474"/>
</g>
<!-- 58 -->
<g id="node59" class="node"><title>58</title>
<path fill="none" stroke="#568ad8" stroke-width="2" stroke-dasharray="5,2" d="M1774,-345C1774,-345 1736,-345 1736,-345 1730,-345 1724,-339 1724,-333 1724,-333 1724,-321 1724,-321 1724,-315 1730,-309 1736,-309 1736,-309 1774,-309 1774,-309 1780,-309 1786,-315 1786,-321 1786,-321 1786,-333 1786,-333 1786,-339 1780,-345 1774,-345"/>
<text text-anchor="middle" x="1755" y="-324.5" font-family="sans" font-size="10.00">bam2bed</text>
</g>
<!-- 58&#45;&gt;35 -->
<g id="edge83" class="edge"><title>58&#45;&gt;35</title>
<path fill="none" stroke="grey" stroke-width="2" d="M1751.67,-308.689C1750.23,-301.205 1748.49,-292.159 1746.8,-283.361"/>
<polygon fill="grey" stroke="grey" stroke-width="2" points="1750.18,-282.416 1744.86,-273.257 1743.31,-283.738 1750.18,-282.416"/>
</g>
<!-- 58&#45;&gt;36 -->
<g id="edge85" class="edge"><title>58&#45;&gt;36</title>
<path fill="none" stroke="grey" stroke-width="2" d="M1786.24,-320.792C1808.23,-317.219 1838.37,-312.509 1865,-309 2007.99,-290.161 2049.75,-306.98 2194.15,-272.914"/>
<polygon fill="grey" stroke="grey" stroke-width="2" points="2195.37,-276.223 2204.27,-270.485 2193.73,-269.416 2195.37,-276.223"/>
</g>
<!-- 58&#45;&gt;41 -->
<g id="edge96" class="edge"><title>58&#45;&gt;41</title>
<path fill="none" stroke="grey" stroke-width="2" d="M1723.59,-323.407C1664.69,-318.056 1533.74,-303.839 1416.46,-273.17"/>
<polygon fill="grey" stroke="grey" stroke-width="2" points="1417.17,-269.737 1406.61,-270.545 1415.37,-276.501 1417.17,-269.737"/>
</g>
<!-- 58&#45;&gt;42 -->
<g id="edge97" class="edge"><title>58&#45;&gt;42</title>
<path fill="none" stroke="grey" stroke-width="2" d="M1780.24,-308.883C1793.17,-300.11 1809.32,-289.155 1824.35,-278.964"/>
<polygon fill="grey" stroke="grey" stroke-width="2" points="1826.72,-281.584 1833.03,-273.075 1822.79,-275.791 1826.72,-281.584"/>
</g>
<!-- 59 -->
<g id="node60" class="node"><title>59</title>
<path fill="none" stroke="#568ad8" stroke-width="2" stroke-dasharray="5,2" d="M690,-345C690,-345 652,-345 652,-345 646,-345 640,-339 640,-333 640,-333 640,-321 640,-321 640,-315 646,-309 652,-309 652,-309 690,-309 690,-309 696,-309 702,-315 702,-321 702,-321 702,-333 702,-333 702,-339 696,-345 690,-345"/>
<text text-anchor="middle" x="671" y="-324.5" font-family="sans" font-size="10.00">bam2bed</text>
</g>
<!-- 59&#45;&gt;38 -->
<g id="edge89" class="edge"><title>59&#45;&gt;38</title>
<path fill="none" stroke="grey" stroke-width="2" d="M702.468,-321.002C724.232,-317.568 753.864,-312.935 780,-309 887.017,-292.888 918.473,-300.691 1027.51,-272.878"/>
<polygon fill="grey" stroke="grey" stroke-width="2" points="1028.44,-276.252 1037.24,-270.354 1026.68,-269.476 1028.44,-276.252"/>
</g>
<!-- 59&#45;&gt;43 -->
<g id="edge99" class="edge"><title>59&#45;&gt;43</title>
<path fill="none" stroke="grey" stroke-width="2" d="M702.233,-311.145C722.258,-301.621 748.943,-288.93 773.135,-277.424"/>
<polygon fill="grey" stroke="grey" stroke-width="2" points="774.738,-280.537 782.266,-273.081 771.732,-274.215 774.738,-280.537"/>
</g>
<!-- 59&#45;&gt;45 -->
<g id="edge103" class="edge"><title>59&#45;&gt;45</title>
<path fill="none" stroke="grey" stroke-width="2" d="M639.932,-321.607C614.862,-318.095 578.678,-313.098 547,-309 418.779,-292.414 381.41,-304.411 251.989,-272.989"/>
<polygon fill="grey" stroke="grey" stroke-width="2" points="252.644,-269.545 242.097,-270.547 250.967,-276.341 252.644,-269.545"/>
</g>
<!-- 59&#45;&gt;46 -->
<g id="edge105" class="edge"><title>59&#45;&gt;46</title>
<path fill="none" stroke="grey" stroke-width="2" d="M639.879,-316.173C609.424,-306.449 561.527,-290.878 511.055,-272.958"/>
<polygon fill="grey" stroke="grey" stroke-width="2" points="512.199,-269.65 501.605,-269.585 509.847,-276.242 512.199,-269.65"/>
</g>
<!-- 60&#45;&gt;40 -->
<g id="edge93" class="edge"><title>60&#45;&gt;40</title>
<path fill="none" stroke="grey" stroke-width="2" d="M2683,-308.689C2681.87,-298.894 2680.43,-286.422 2679.15,-275.335"/>
<polygon fill="grey" stroke="grey" stroke-width="2" points="2682.62,-274.795 2677.99,-265.262 2675.66,-275.598 2682.62,-274.795"/>
</g>
<!-- 61 -->
<g id="node62" class="node"><title>61</title>
<path fill="none" stroke="#568ad8" stroke-width="2" stroke-dasharray="5,2" d="M526,-345C526,-345 488,-345 488,-345 482,-345 476,-339 476,-333 476,-333 476,-321 476,-321 476,-315 482,-309 488,-309 488,-309 526,-309 526,-309 532,-309 538,-315 538,-321 538,-321 538,-333 538,-333 538,-339 532,-345 526,-345"/>
<text text-anchor="middle" x="507" y="-324.5" font-family="sans" font-size="10.00">bam2bed</text>
</g>
<!-- 61&#45;&gt;44 -->
<g id="edge102" class="edge"><title>61&#45;&gt;44</title>
<path fill="none" stroke="grey" stroke-width="2" d="M538.094,-313.812C565.472,-303.081 606.242,-287.101 640.752,-273.575"/>
<polygon fill="grey" stroke="grey" stroke-width="2" points="642.27,-276.739 650.303,-269.831 639.715,-270.222 642.27,-276.739"/>
</g>
<!-- 61&#45;&gt;46 -->
<g id="edge106" class="edge"><title>61&#45;&gt;46</title>
<path fill="none" stroke="grey" stroke-width="2" d="M493.462,-308.689C487.164,-300.636 479.451,-290.773 472.088,-281.358"/>
<polygon fill="grey" stroke="grey" stroke-width="2" points="474.67,-278.978 465.752,-273.257 469.156,-283.29 474.67,-278.978"/>
</g>
<!-- 61&#45;&gt;48 -->
<g id="edge110" class="edge"><title>61&#45;&gt;48</title>
<path fill="none" stroke="grey" stroke-width="2" d="M538.082,-321.715C563.16,-318.263 599.348,-313.296 631,-309 746.949,-293.264 780.793,-302.268 898.5,-272.867"/>
<polygon fill="grey" stroke="grey" stroke-width="2" points="899.418,-276.245 908.25,-270.393 897.697,-269.46 899.418,-276.245"/>
</g>
<!-- 61&#45;&gt;51 -->
<g id="edge116" class="edge"><title>61&#45;&gt;51</title>
<path fill="none" stroke="grey" stroke-width="2" d="M475.722,-322.648C399.468,-314.331 204.759,-292.189 121.881,-272.89"/>
<polygon fill="grey" stroke="grey" stroke-width="2" points="122.657,-269.477 112.111,-270.492 120.988,-276.275 122.657,-269.477"/>
</g>
<!-- 62 -->
<g id="node63" class="node"><title>62</title>
<path fill="none" stroke="#568ad8" stroke-width="2" stroke-dasharray="5,2" d="M332,-345C332,-345 294,-345 294,-345 288,-345 282,-339 282,-333 282,-333 282,-321 282,-321 282,-315 288,-309 294,-309 294,-309 332,-309 332,-309 338,-309 344,-315 344,-321 344,-321 344,-333 344,-333 344,-339 338,-345 332,-345"/>
<text text-anchor="middle" x="313" y="-324.5" font-family="sans" font-size="10.00">bam2bed</text>
</g>
<!-- 62&#45;&gt;45 -->
<g id="edge104" class="edge"><title>62&#45;&gt;45</title>
<path fill="none" stroke="grey" stroke-width="2" d="M285.129,-308.883C270.58,-299.947 252.34,-288.744 235.487,-278.393"/>
<polygon fill="grey" stroke="grey" stroke-width="2" points="237.18,-275.326 226.827,-273.075 233.516,-281.291 237.18,-275.326"/>
</g>
<!-- 62&#45;&gt;47 -->
<g id="edge108" class="edge"><title>62&#45;&gt;47</title>
<path fill="none" stroke="grey" stroke-width="2" d="M344.329,-318.592C383.43,-309.112 452.2,-291.671 510,-273 510.102,-272.967 510.204,-272.934 510.306,-272.901"/>
<polygon fill="grey" stroke="grey" stroke-width="2" points="511.598,-276.159 519.965,-269.659 509.371,-269.523 511.598,-276.159"/>
</g>
<!-- 62&#45;&gt;50 -->
<g id="edge113" class="edge"><title>62&#45;&gt;50</title>
<path fill="none" stroke="grey" stroke-width="2" d="M313.666,-308.689C313.954,-301.205 314.302,-292.159 314.64,-283.361"/>
<polygon fill="grey" stroke="grey" stroke-width="2" points="318.142,-283.384 315.029,-273.257 311.147,-283.115 318.142,-283.384"/>
</g>
<!-- 62&#45;&gt;51 -->
<g id="edge115" class="edge"><title>62&#45;&gt;51</title>
<path fill="none" stroke="grey" stroke-width="2" d="M281.795,-318.387C245.513,-309.318 183.686,-293.194 122.123,-273.254"/>
<polygon fill="grey" stroke="grey" stroke-width="2" points="122.841,-269.806 112.249,-270.021 120.664,-276.459 122.841,-269.806"/>
</g>
<!-- 63 -->
<g id="node64" class="node"><title>63</title>
<path fill="none" stroke="#d88d56" stroke-width="2" stroke-dasharray="5,2" d="M1044,-417C1044,-417 1014,-417 1014,-417 1008,-417 1002,-411 1002,-405 1002,-405 1002,-393 1002,-393 1002,-387 1008,-381 1014,-381 1014,-381 1044,-381 1044,-381 1050,-381 1056,-387 1056,-393 1056,-393 1056,-405 1056,-405 1056,-411 1050,-417 1044,-417"/>
<text text-anchor="middle" x="1029" y="-396.5" font-family="sans" font-size="10.00">bowtie2</text>
</g>
<!-- 63&#45;&gt;52 -->
<g id="edge117" class="edge"><title>63&#45;&gt;52</title>
<path fill="none" stroke="grey" stroke-width="2" d="M1029,-380.697C1029,-372.983 1029,-363.712 1029,-355.112"/>
<polygon fill="grey" stroke="grey" stroke-width="2" points="1032.5,-355.104 1029,-345.104 1025.5,-355.104 1032.5,-355.104"/>
</g>
<!-- 64 -->
<g id="node65" class="node"><title>64</title>
<path fill="none" stroke="#d88d56" stroke-width="2" stroke-dasharray="5,2" d="M835,-417C835,-417 805,-417 805,-417 799,-417 793,-411 793,-405 793,-405 793,-393 793,-393 793,-387 799,-381 805,-381 805,-381 835,-381 835,-381 841,-381 847,-387 847,-393 847,-393 847,-405 847,-405 847,-411 841,-417 835,-417"/>
<text text-anchor="middle" x="820" y="-396.5" font-family="sans" font-size="10.00">bowtie2</text>
</g>
<!-- 64&#45;&gt;53 -->
<g id="edge118" class="edge"><title>64&#45;&gt;53</title>
<path fill="none" stroke="grey" stroke-width="2" d="M820,-380.697C820,-372.983 820,-363.712 820,-355.112"/>
<polygon fill="grey" stroke="grey" stroke-width="2" points="823.5,-355.104 820,-345.104 816.5,-355.104 823.5,-355.104"/>
</g>
<!-- 65 -->
<g id="node66" class="node"><title>65</title>
<path fill="none" stroke="#d88d56" stroke-width="2" stroke-dasharray="5,2" d="M2115,-417C2115,-417 2085,-417 2085,-417 2079,-417 2073,-411 2073,-405 2073,-405 2073,-393 2073,-393 2073,-387 2079,-381 2085,-381 2085,-381 2115,-381 2115,-381 2121,-381 2127,-387 2127,-393 2127,-393 2127,-405 2127,-405 2127,-411 2121,-417 2115,-417"/>
<text text-anchor="middle" x="2100" y="-396.5" font-family="sans" font-size="10.00">bowtie2</text>
</g>
<!-- 65&#45;&gt;54 -->
<g id="edge119" class="edge"><title>65&#45;&gt;54</title>
<path fill="none" stroke="grey" stroke-width="2" d="M2100,-380.697C2100,-372.983 2100,-363.712 2100,-355.112"/>
<polygon fill="grey" stroke="grey" stroke-width="2" points="2103.5,-355.104 2100,-345.104 2096.5,-355.104 2103.5,-355.104"/>
</g>
<!-- 66 -->
<g id="node67" class="node"><title>66</title>
<path fill="none" stroke="#d88d56" stroke-width="2" stroke-dasharray="5,2" d="M1560,-417C1560,-417 1530,-417 1530,-417 1524,-417 1518,-411 1518,-405 1518,-405 1518,-393 1518,-393 1518,-387 1524,-381 1530,-381 1530,-381 1560,-381 1560,-381 1566,-381 1572,-387 1572,-393 1572,-393 1572,-405 1572,-405 1572,-411 1566,-417 1560,-417"/>
<text text-anchor="middle" x="1545" y="-396.5" font-family="sans" font-size="10.00">bowtie2</text>
</g>
<!-- 66&#45;&gt;55 -->
<g id="edge120" class="edge"><title>66&#45;&gt;55</title>
<path fill="none" stroke="grey" stroke-width="2" d="M1545,-380.697C1545,-372.983 1545,-363.712 1545,-355.112"/>
<polygon fill="grey" stroke="grey" stroke-width="2" points="1548.5,-355.104 1545,-345.104 1541.5,-355.104 1548.5,-355.104"/>
</g>
<!-- 67 -->
<g id="node68" class="node"><title>67</title>
<path fill="none" stroke="#d88d56" stroke-width="2" stroke-dasharray="5,2" d="M1920,-417C1920,-417 1890,-417 1890,-417 1884,-417 1878,-411 1878,-405 1878,-405 1878,-393 1878,-393 1878,-387 1884,-381 1890,-381 1890,-381 1920,-381 1920,-381 1926,-381 1932,-387 1932,-393 1932,-393 1932,-405 1932,-405 1932,-411 1926,-417 1920,-417"/>
<text text-anchor="middle" x="1905" y="-396.5" font-family="sans" font-size="10.00">bowtie2</text>
</g>
<!-- 67&#45;&gt;57 -->
<g id="edge122" class="edge"><title>67&#45;&gt;57</title>
<path fill="none" stroke="grey" stroke-width="2" d="M1905,-380.697C1905,-372.983 1905,-363.712 1905,-355.112"/>
<polygon fill="grey" stroke="grey" stroke-width="2" points="1908.5,-355.104 1905,-345.104 1901.5,-355.104 1908.5,-355.104"/>
</g>
<!-- 68 -->
<g id="node69" class="node"><title>68</title>
<path fill="none" stroke="#d88d56" stroke-width="2" stroke-dasharray="5,2" d="M1770,-417C1770,-417 1740,-417 1740,-417 1734,-417 1728,-411 1728,-405 1728,-405 1728,-393 1728,-393 1728,-387 1734,-381 1740,-381 1740,-381 1770,-381 1770,-381 1776,-381 1782,-387 1782,-393 1782,-393 1782,-405 1782,-405 1782,-411 1776,-417 1770,-417"/>
<text text-anchor="middle" x="1755" y="-396.5" font-family="sans" font-size="10.00">bowtie2</text>
</g>
<!-- 68&#45;&gt;58 -->
<g id="edge123" class="edge"><title>68&#45;&gt;58</title>
<path fill="none" stroke="grey" stroke-width="2" d="M1755,-380.697C1755,-372.983 1755,-363.712 1755,-355.112"/>
<polygon fill="grey" stroke="grey" stroke-width="2" points="1758.5,-355.104 1755,-345.104 1751.5,-355.104 1758.5,-355.104"/>
</g>
<!-- 69 -->
<g id="node70" class="node"><title>69</title>
<path fill="none" stroke="#d88d56" stroke-width="2" stroke-dasharray="5,2" d="M686,-417C686,-417 656,-417 656,-417 650,-417 644,-411 644,-405 644,-405 644,-393 644,-393 644,-387 650,-381 656,-381 656,-381 686,-381 686,-381 692,-381 698,-387 698,-393 698,-393 698,-405 698,-405 698,-411 692,-417 686,-417"/>
<text text-anchor="middle" x="671" y="-396.5" font-family="sans" font-size="10.00">bowtie2</text>
</g>
<!-- 69&#45;&gt;59 -->
<g id="edge124" class="edge"><title>69&#45;&gt;59</title>
<path fill="none" stroke="grey" stroke-width="2" d="M671,-380.697C671,-372.983 671,-363.712 671,-355.112"/>
<polygon fill="grey" stroke="grey" stroke-width="2" points="674.5,-355.104 671,-345.104 667.5,-355.104 674.5,-355.104"/>
</g>
<!-- 70 -->
<g id="node71" class="node"><title>70</title>
<path fill="none" stroke="#d88d56" stroke-width="2" stroke-dasharray="5,2" d="M522,-417C522,-417 492,-417 492,-417 486,-417 480,-411 480,-405 480,-405 480,-393 480,-393 480,-387 486,-381 492,-381 492,-381 522,-381 522,-381 528,-381 534,-387 534,-393 534,-393 534,-405 534,-405 534,-411 528,-417 522,-417"/>
<text text-anchor="middle" x="507" y="-396.5" font-family="sans" font-size="10.00">bowtie2</text>
</g>
<!-- 70&#45;&gt;61 -->
<g id="edge126" class="edge"><title>70&#45;&gt;61</title>
<path fill="none" stroke="grey" stroke-width="2" d="M507,-380.697C507,-372.983 507,-363.712 507,-355.112"/>
<polygon fill="grey" stroke="grey" stroke-width="2" points="510.5,-355.104 507,-345.104 503.5,-355.104 510.5,-355.104"/>
</g>
<!-- 71 -->
<g id="node72" class="node"><title>71</title>
<path fill="none" stroke="#d88d56" stroke-width="2" stroke-dasharray="5,2" d="M328,-417C328,-417 298,-417 298,-417 292,-417 286,-411 286,-405 286,-405 286,-393 286,-393 286,-387 292,-381 298,-381 298,-381 328,-381 328,-381 334,-381 340,-387 340,-393 340,-393 340,-405 340,-405 340,-411 334,-417 328,-417"/>
<text text-anchor="middle" x="313" y="-396.5" font-family="sans" font-size="10.00">bowtie2</text>
</g>
<!-- 71&#45;&gt;62 -->
<g id="edge127" class="edge"><title>71&#45;&gt;62</title>
<path fill="none" stroke="grey" stroke-width="2" d="M313,-380.697C313,-372.983 313,-363.712 313,-355.112"/>
<polygon fill="grey" stroke="grey" stroke-width="2" points="316.5,-355.104 313,-345.104 309.5,-355.104 316.5,-355.104"/>
</g>
<!-- 72 -->
<g id="node73" class="node"><title>72</title>
<path fill="none" stroke="#d85656" stroke-width="2" stroke-dasharray="5,2" d="M1075.5,-489C1075.5,-489 982.5,-489 982.5,-489 976.5,-489 970.5,-483 970.5,-477 970.5,-477 970.5,-465 970.5,-465 970.5,-459 976.5,-453 982.5,-453 982.5,-453 1075.5,-453 1075.5,-453 1081.5,-453 1087.5,-459 1087.5,-465 1087.5,-465 1087.5,-477 1087.5,-477 1087.5,-483 1081.5,-489 1075.5,-489"/>
<text text-anchor="middle" x="1029" y="-474" font-family="sans" font-size="10.00">trimmomatic</text>
<text text-anchor="middle" x="1029" y="-463" font-family="sans" font-size="10.00">sample: A_H3K9me3</text>
</g>
<!-- 72&#45;&gt;63 -->
<g id="edge128" class="edge"><title>72&#45;&gt;63</title>
<path fill="none" stroke="grey" stroke-width="2" d="M1029,-452.697C1029,-444.983 1029,-435.712 1029,-427.112"/>
<polygon fill="grey" stroke="grey" stroke-width="2" points="1032.5,-427.104 1029,-417.104 1025.5,-427.104 1032.5,-427.104"/>
</g>
<!-- 73 -->
<g id="node74" class="node"><title>73</title>
<path fill="none" stroke="#d85656" stroke-width="2" stroke-dasharray="5,2" d="M866.5,-489C866.5,-489 773.5,-489 773.5,-489 767.5,-489 761.5,-483 761.5,-477 761.5,-477 761.5,-465 761.5,-465 761.5,-459 767.5,-453 773.5,-453 773.5,-453 866.5,-453 866.5,-453 872.5,-453 878.5,-459 878.5,-465 878.5,-465 878.5,-477 878.5,-477 878.5,-483 872.5,-489 866.5,-489"/>
<text text-anchor="middle" x="820" y="-474" font-family="sans" font-size="10.00">trimmomatic</text>
<text text-anchor="middle" x="820" y="-463" font-family="sans" font-size="10.00">sample: B_H3K9me3</text>
</g>
<!-- 73&#45;&gt;64 -->
<g id="edge129" class="edge"><title>73&#45;&gt;64</title>
<path fill="none" stroke="grey" stroke-width="2" d="M820,-452.697C820,-444.983 820,-435.712 820,-427.112"/>
<polygon fill="grey" stroke="grey" stroke-width="2" points="823.5,-427.104 820,-417.104 816.5,-427.104 823.5,-427.104"/>
</g>
<!-- 74 -->
<g id="node75" class="node"><title>74</title>
<path fill="none" stroke="#d85656" stroke-width="2" stroke-dasharray="5,2" d="M2147,-489C2147,-489 2053,-489 2053,-489 2047,-489 2041,-483 2041,-477 2041,-477 2041,-465 2041,-465 2041,-459 2047,-453 2053,-453 2053,-453 2147,-453 2147,-453 2153,-453 2159,-459 2159,-465 2159,-465 2159,-477 2159,-477 2159,-483 2153,-489 2147,-489"/>
<text text-anchor="middle" x="2100" y="-474" font-family="sans" font-size="10.00">trimmomatic</text>
<text text-anchor="middle" x="2100" y="-463" font-family="sans" font-size="10.00">sample: D_H3K4me3</text>
</g>
<!-- 74&#45;&gt;65 -->
<g id="edge130" class="edge"><title>74&#45;&gt;65</title>
<path fill="none" stroke="grey" stroke-width="2" d="M2100,-452.697C2100,-444.983 2100,-435.712 2100,-427.112"/>
<polygon fill="grey" stroke="grey" stroke-width="2" points="2103.5,-427.104 2100,-417.104 2096.5,-427.104 2103.5,-427.104"/>
</g>
<!-- 75 -->
<g id="node76" class="node"><title>75</title>
<path fill="none" stroke="#d85656" stroke-width="2" stroke-dasharray="5,2" d="M1591.5,-489C1591.5,-489 1498.5,-489 1498.5,-489 1492.5,-489 1486.5,-483 1486.5,-477 1486.5,-477 1486.5,-465 1486.5,-465 1486.5,-459 1492.5,-453 1498.5,-453 1498.5,-453 1591.5,-453 1591.5,-453 1597.5,-453 1603.5,-459 1603.5,-465 1603.5,-465 1603.5,-477 1603.5,-477 1603.5,-483 1597.5,-489 1591.5,-489"/>
<text text-anchor="middle" x="1545" y="-474" font-family="sans" font-size="10.00">trimmomatic</text>
<text text-anchor="middle" x="1545" y="-463" font-family="sans" font-size="10.00">sample: B_H3K4me3</text>
</g>
<!-- 75&#45;&gt;66 -->
<g id="edge131" class="edge"><title>75&#45;&gt;66</title>
<path fill="none" stroke="grey" stroke-width="2" d="M1545,-452.697C1545,-444.983 1545,-435.712 1545,-427.112"/>
<polygon fill="grey" stroke="grey" stroke-width="2" points="1548.5,-427.104 1545,-417.104 1541.5,-427.104 1548.5,-427.104"/>
</g>
<!-- 76 -->
<g id="node77" class="node"><title>76</title>
<path fill="none" stroke="#d85656" stroke-width="2" stroke-dasharray="5,2" d="M1951,-489C1951,-489 1859,-489 1859,-489 1853,-489 1847,-483 1847,-477 1847,-477 1847,-465 1847,-465 1847,-459 1853,-453 1859,-453 1859,-453 1951,-453 1951,-453 1957,-453 1963,-459 1963,-465 1963,-465 1963,-477 1963,-477 1963,-483 1957,-489 1951,-489"/>
<text text-anchor="middle" x="1905" y="-474" font-family="sans" font-size="10.00">trimmomatic</text>
<text text-anchor="middle" x="1905" y="-463" font-family="sans" font-size="10.00">sample: E_H3K4me3</text>
</g>
<!-- 76&#45;&gt;67 -->
<g id="edge132" class="edge"><title>76&#45;&gt;67</title>
<path fill="none" stroke="grey" stroke-width="2" d="M1905,-452.697C1905,-444.983 1905,-435.712 1905,-427.112"/>
<polygon fill="grey" stroke="grey" stroke-width="2" points="1908.5,-427.104 1905,-417.104 1901.5,-427.104 1908.5,-427.104"/>
</g>
<!-- 77 -->
<g id="node78" class="node"><title>77</title>
<path fill="none" stroke="#d85656" stroke-width="2" stroke-dasharray="5,2" d="M1801.5,-489C1801.5,-489 1708.5,-489 1708.5,-489 1702.5,-489 1696.5,-483 1696.5,-477 1696.5,-477 1696.5,-465 1696.5,-465 1696.5,-459 1702.5,-453 1708.5,-453 1708.5,-453 1801.5,-453 1801.5,-453 1807.5,-453 1813.5,-459 1813.5,-465 1813.5,-465 1813.5,-477 1813.5,-477 1813.5,-483 1807.5,-489 1801.5,-489"/>
<text text-anchor="middle" x="1755" y="-474" font-family="sans" font-size="10.00">trimmomatic</text>
<text text-anchor="middle" x="1755" y="-463" font-family="sans" font-size="10.00">sample: C_H3K4me3</text>
</g>
<!-- 77&#45;&gt;68 -->
<g id="edge133" class="edge"><title>77&#45;&gt;68</title>
<path fill="none" stroke="grey" stroke-width="2" d="M1755,-452.697C1755,-444.983 1755,-435.712 1755,-427.112"/>
<polygon fill="grey" stroke="grey" stroke-width="2" points="1758.5,-427.104 1755,-417.104 1751.5,-427.104 1758.5,-427.104"/>
</g>
<!-- 78 -->
<g id="node79" class="node"><title>78</title>
<path fill="none" stroke="#d85656" stroke-width="2" stroke-dasharray="5,2" d="M717,-489C717,-489 625,-489 625,-489 619,-489 613,-483 613,-477 613,-477 613,-465 613,-465 613,-459 619,-453 625,-453 625,-453 717,-453 717,-453 723,-453 729,-459 729,-465 729,-465 729,-477 729,-477 729,-483 723,-489 717,-489"/>
<text text-anchor="middle" x="671" y="-474" font-family="sans" font-size="10.00">trimmomatic</text>
<text text-anchor="middle" x="671" y="-463" font-family="sans" font-size="10.00">sample: E_H3K9me3</text>
</g>
<!-- 78&#45;&gt;69 -->
<g id="edge134" class="edge"><title>78&#45;&gt;69</title>
<path fill="none" stroke="grey" stroke-width="2" d="M671,-452.697C671,-444.983 671,-435.712 671,-427.112"/>
<polygon fill="grey" stroke="grey" stroke-width="2" points="674.5,-427.104 671,-417.104 667.5,-427.104 674.5,-427.104"/>
</g>
<!-- 79 -->
<g id="node80" class="node"><title>79</title>
<path fill="none" stroke="#d85656" stroke-width="2" stroke-dasharray="5,2" d="M553.5,-489C553.5,-489 460.5,-489 460.5,-489 454.5,-489 448.5,-483 448.5,-477 448.5,-477 448.5,-465 448.5,-465 448.5,-459 454.5,-453 460.5,-453 460.5,-453 553.5,-453 553.5,-453 559.5,-453 565.5,-459 565.5,-465 565.5,-465 565.5,-477 565.5,-477 565.5,-483 559.5,-489 553.5,-489"/>
<text text-anchor="middle" x="507" y="-474" font-family="sans" font-size="10.00">trimmomatic</text>
<text text-anchor="middle" x="507" y="-463" font-family="sans" font-size="10.00">sample: C_H3K9me3</text>
</g>
<!-- 79&#45;&gt;70 -->
<g id="edge135" class="edge"><title>79&#45;&gt;70</title>
<path fill="none" stroke="grey" stroke-width="2" d="M507,-452.697C507,-444.983 507,-435.712 507,-427.112"/>
<polygon fill="grey" stroke="grey" stroke-width="2" points="510.5,-427.104 507,-417.104 503.5,-427.104 510.5,-427.104"/>
</g>
<!-- 80 -->
<g id="node81" class="node"><title>80</title>
<path fill="none" stroke="#d85656" stroke-width="2" stroke-dasharray="5,2" d="M360,-489C360,-489 266,-489 266,-489 260,-489 254,-483 254,-477 254,-477 254,-465 254,-465 254,-459 260,-453 266,-453 266,-453 360,-453 360,-453 366,-453 372,-459 372,-465 372,-465 372,-477 372,-477 372,-483 366,-489 360,-489"/>
<text text-anchor="middle" x="313" y="-474" font-family="sans" font-size="10.00">trimmomatic</text>
<text text-anchor="middle" x="313" y="-463" font-family="sans" font-size="10.00">sample: D_H3K9me3</text>
</g>
<!-- 80&#45;&gt;71 -->
<g id="edge136" class="edge"><title>80&#45;&gt;71</title>
<path fill="none" stroke="grey" stroke-width="2" d="M313,-452.697C313,-444.983 313,-435.712 313,-427.112"/>
<polygon fill="grey" stroke="grey" stroke-width="2" points="316.5,-427.104 313,-417.104 309.5,-427.104 316.5,-427.104"/>
</g>
</g>
</svg>
